/* XPM */
static char *result[] = {
/* columns rows colors chars-per-pixel */
"64 64 235 2 ",
"   c #010101",
".  c #06080B",
"X  c #040C18",
"o  c #06111E",
"O  c #16181A",
"+  c #110F10",
"@  c #051326",
"#  c #06152B",
"$  c #08172D",
"%  c #07182E",
"&  c #09192E",
"*  c #191B24",
"=  c #071931",
"-  c #0A1C34",
";  c #0B1F39",
":  c #0D2036",
">  c #0C213D",
",  c #132338",
"<  c #1E222A",
"1  c #252626",
"2  c #393939",
"3  c #2C2F30",
"4  c #0D2543",
"5  c #0F2847",
"6  c #0F2A4A",
"7  c #0D2748",
"8  c #112946",
"9  c #1A2D46",
"0  c #112C4C",
"q  c #132945",
"w  c #1A314C",
"e  c #17304E",
"r  c #122F51",
"t  c #143155",
"y  c #1C3553",
"u  c #15355A",
"i  c #193659",
"p  c #17385F",
"a  c #1A395D",
"s  c #1F3957",
"d  c #243449",
"f  c #223D5C",
"g  c #263A55",
"h  c #343842",
"j  c #1B3C62",
"k  c #1E3F68",
"l  c #213E62",
"z  c #2B415D",
"x  c #384453",
"c  c #1F4166",
"v  c #224166",
"b  c #2B4564",
"n  c #24456A",
"m  c #2A466B",
"M  c #2B4A6D",
"N  c #28486C",
"B  c #334D6B",
"V  c #354864",
"C  c #2C4D73",
"Z  c #264971",
"A  c #324F73",
"S  c #384B70",
"D  c #345174",
"F  c #3C5473",
"G  c #3A567B",
"H  c #3D5B7D",
"J  c #36567B",
"K  c #345070",
"L  c #42464A",
"P  c #4E5256",
"I  c #435D7B",
"U  c #475C75",
"Y  c #495567",
"T  c #49617E",
"R  c #57677B",
"E  c #5D6469",
"W  c #65686C",
"Q  c #6B7279",
"!  c #3C5986",
"~  c #3C5C91",
"^  c #415D81",
"/  c #465F8B",
"(  c #446182",
")  c #4B6583",
"_  c #4C698A",
"`  c #4A668C",
"'  c #536A85",
"]  c #546D8B",
"[  c #596D87",
"{  c #56708E",
"}  c #5B738E",
"|  c #4F6D94",
" . c #476597",
".. c #536E94",
"X. c #5C7593",
"o. c #55739D",
"O. c #5A779B",
"+. c #587598",
"@. c #67778C",
"#. c #647B94",
"$. c #667E9A",
"%. c #687B94",
"&. c #747D87",
"*. c #5B7AA5",
"=. c #5776A3",
"-. c #647EA2",
";. c #617CAA",
":. c #6C839D",
">. c #66809C",
",. c #72859D",
"<. c #77889D",
"1. c #7C868A",
"2. c #5F80A9",
"3. c #6D85A2",
"4. c #6483AC",
"5. c #6A87AC",
"6. c #6D89AC",
"7. c #6782A4",
"8. c #7389A2",
"9. c #7B8DA3",
"0. c #748DAC",
"q. c #748AA5",
"w. c #7C91AB",
"e. c #7E92A7",
"r. c #6B89B4",
"t. c #728DB4",
"y. c #728EB9",
"u. c #7C95B3",
"i. c #7B96BC",
"p. c #7D99BD",
"a. c #7793B8",
"s. c #7C98C2",
"d. c #838B98",
"f. c #8A949A",
"g. c #8E9193",
"h. c #8195AC",
"j. c #8699AF",
"k. c #8C9BAD",
"l. c #8594A7",
"z. c #8499B3",
"x. c #8B9DB3",
"c. c #849CBB",
"v. c #8297B3",
"b. c #8997A1",
"n. c #8BA1BC",
"m. c #8EA1B5",
"M. c #94A3B4",
"N. c #93A5BB",
"B. c #9AAABC",
"V. c #97A7B9",
"C. c #9FA5A7",
"Z. c #A4A5A6",
"A. c #A1ADB5",
"S. c #A6B2B9",
"D. c #B6BABA",
"F. c #839DC2",
"G. c #8CA4C3",
"H. c #89A4C6",
"J. c #92A6C1",
"K. c #94AAC4",
"L. c #9BADC3",
"P. c #95ACCB",
"I. c #94AAC8",
"U. c #9CB2CE",
"Y. c #99B1CA",
"T. c #9CB4D2",
"R. c #A4B2C3",
"E. c #A8B5C4",
"W. c #A2B5CD",
"Q. c #ACBACA",
"!. c #A9B8CA",
"~. c #B3BECA",
"^. c #B8BFCA",
"/. c #A4B9D5",
"(. c #ABBDD2",
"). c #AABED9",
"_. c #A3B7D4",
"`. c #B2BFD2",
"'. c #B6C2CC",
"]. c #ADC2DB",
"[. c #AEC1D7",
"{. c #B3C2D3",
"}. c #BBC6D3",
"|. c #B1C4DB",
" X c #BBCBDC",
".X c #B9C8D9",
"XX c #BFD0DD",
"oX c #BCCDE3",
"OX c #B6C8E0",
"+X c #C1CBD5",
"@X c #C2CEDC",
"#X c #CACBD1",
"$X c #C5D0DD",
"%X c #CCD4DD",
"&X c #C7D6D8",
"*X c #D8D8D9",
"=X c #C5C6C7",
"-X c #C5D3E4",
";X c #CBD6E3",
":X c #CDD9E3",
">X c #CDDAEA",
",X c #C8D6E8",
"<X c #D4DCE4",
"1X c #DADFE6",
"2X c #D4DEEA",
"3X c #C1CFE4",
"4X c #CEE1E4",
"5X c #D4E3E5",
"6X c #DBE2E6",
"7X c #D5E2EB",
"8X c #DCE5EB",
"9X c #D6E9EB",
"0X c #DBEBEC",
"qX c #D4E5F1",
"wX c #DBE6F1",
"eX c #DCEDF1",
"rX c #DEF1F4",
"tX c #CFE0F1",
"yX c #E1E6EC",
"uX c #E3EBEE",
"iX c #EAECEE",
"pX c #E3E5E7",
"aX c #E4EDF1",
"sX c #EBEEF1",
"dX c #E3EAF4",
"fX c #E4F3F4",
"gX c #ECF2F5",
"hX c #E4F6F8",
"jX c #EBF6F9",
"kX c #E6F9FA",
"lX c #ECFCFD",
"zX c #F2F3F5",
"xX c #F4F6F8",
"cX c #F3FCFD",
"vX c #FCFCFD",
/* pixels */
"> 6 0 t t u j b ) e.%XvXvXxXxXxXzXzXxXfXfXpXuXfXrXfXgXgXkXkXkXkXrXlXkXlXlXlXlXlXlXlXlXlXcXlXlXcXlXcXcXcXvXxX(.z.0.O._ a r b R R ",
"B b 6 t u t c _ } x.6XvXvXvXvXxXxXsXjXuXuXfX0XuXfXfXkXfXkXkXrXkXrXrXkXkXlXlXlXlXlXlXlXlXlXcXcXlXcXcXcXvXvXvX.XK.c.u.>.H K ' d.k.",
"$.b t j c G { u.c.V.uXvXxXxXvXxXvXxXgXuXuXgX0X0XrXfXfXrXkXrXrXrXrXkXlXlXlXlXlXlXlXlXlXlXcXcXlXcXlXcXcXvXvXvX.XI.J.c.n.c.T [ R.}.",
"w.} v M +.v.n.c.n.B.sXvXxXzXxXvXzXxXfXfXfXfX0X6X0XrX0X0XrXrXlXrXkXlXlXlXkXlXlXlXlXlXcXlXlXlXcXlXcXcXcXvXvXdX@X(.Q.Y.Q.W.:.j.{.XX",
"I.n.X.$.n.B.L.N.N.~.zXzXiXzXxXxXsXgXfXuX0X6X5X5X5X0X9XrXrXkXkXrXkXkXkXlXlXlXlXlXcXlXlXlXlXlXlXcXcXcXcXvXvXwX;X@X$X.X X X[.Q.|.oX",
"U.I.z.z.N.R.{.~.}.:XyXwXzXxXxXxXzXjXzXfXpX0X6XrX0X0X0XrXrXkXkXkXrXkXkXkXlXkXlXlXlXlXcXlXcXlXcXlXlXcXxXdXdXdXdXwX8X%X$X;X$X.X|.|.",
"W.K.K.J.N.Q..X$X2X8XuXyXpXzXxXxXgXxXxX0X0X5X0XuX9X0XfXrXkXlXkXlXkXkXkXlXlXkXlXlXlXcXlXcXlXlXcXlXcXcXqX2XdXjXzXgXuX<X%X;X-X$X X].",
"W.W.L.B.B.L.Q.@X2XdXuXiXiXzXzXxXxXjXgXuXuX0X9X9X9XfXrXrXkXkXkXlXrXkXlXlXlXkXlXlXlXlXlXlXlXlXkXkXhXeXtXwXdXvXzXsXuX7X;XXX XXX|.].",
"W.(._.L.N.x.x.`.2XiXyXdXdXdXiXsXzXjXgXgXrX0XfX0XrXrXrXkXrXkXkXlXkXlXlXkXlXlXlXlXlXlXlXlXlXlXrXdXqXtXqXwXsXjXzXwXyX2X$X[.|..X X].",
"K.W.W.N.9.,.3.B.;XyXdXyXyX2X2XsXzXfXfXgX0XlX0X0XrXrXkXkXkXrXlXlXlXlXkXkXlXlXlXlXcXlXlXcXlXlXhXdXwXqXqXqXtXwXwX>X1XoXU.L./.|.].].",
"J.J.n.z.$.X.%.h.`.2XdXwX1X:X:XiXgXuXfXlXjXlXfXhXrXrXrXkXlXlXlXrXkXlXhXkXlXlXlXlXlXlXlXlXlXcXlXlXhXqXwX>XoXoXOXoX3X].H.H.I./.).T.",
"c.x.x.N.j.} $.8.V.$X1XwX2X;X;XsXgXuXgXgXlXgXfXfXrXrXrXrXkXlXlXrXkXlXlXlXlXlXlXlXcXlXcXlXlXlXcXlXjXgXdXoXOX/._./._.P.H.s.s.T.T.Y.",
"3.x.l.k.E.,.9.k.z.{.<X2X7X<X;XpXuXuXgXgXfXkXrX9XrXrXrXrXkXlXlXkXlXlXlXlXkXlXlXlXlXlXlXcXlXlXcXcXxXcXeX,XoX].T.P.P.H.i.y.s.H.H.H.",
"] $.@.9.V.l.l.M.k.~.uX6X8X2X<X6X5XuXfX0XfXhXrX9XrXrXkXrXlXlXlXlXlXkXlXhXhXlXcXlXcXlXlXcXlXcXlXlXxXxXwX,XoX].T.H.H.p.y.y.i.y.s.s.",
"' @.@.9.M.k.<.l.M.^.gXsXaX2X:X<X6XuXuXrXfXfXeXrXrXeXrXrXlXkXkXlXlXrXkXlXhXkXlXlXlXkXcXlXlXlXcXcXgX8X>X,XoXOXT.H.i.t.5.r.y.4.y.a.",
"T R U %.l.l.l.9.b.^.zXsXzXuX<X2XpX0X6X0XfX0XeXqXrXrXrXkXkXlXkXlXlXrXrXkXkXkXfXlXlXlXlXlXcXlXcXcXwX,X,X3X-XoX].n.t.4.*.4.r.2.*.2.",
"g g 9 V [ U %.$.,.S.zXxXsXzXyXuXsX8X5X6X0XfX0X9XeXeXeXeXrXrXkXkXkXfX0XkXjXkXlXlXlXlXlXlXjXlXlXcXtX,X-X,X-X-X`.F.6.O.| o.=.=.=.o.",
", , > 9 g w b U @.A.zXzXsXsXiXsXgX6X8X0X0XfXfX0X9X9X9X9XrXrXkXkXhXfXkXkXkXlXlXlXlXkXlXlXjXkXeXqX,X,X,X3X3X;X|.F.6.+.` ` | *.=.o.",
", , > 4 q 0 g B [ V.pXzXsXiXzXiXaXaXfXuXfXfXhX0X9X9X9X9X9XrXrXrXfXhXkXhXlXlXlXlXhXjXhXlXkXfXdXqX>X,X,X,X-X2X.Xc.6.+.| ` o.r.*.o.",
"> > > > q 8 t B [ M.8XzXzXzXzXzXsXgXgXuX0XeXrX0X9X4X9XrX4X9XrXrXkXfXfXkXkXlXlXkXfXfXhXjXcXjXfX>X2X2XwX>X>XwX{.c.0.-.5.4.6.t.4.*.",
"; > > 4 q 0 i m ] j.<XxXzXzXxXzXzXgXgXfXrXfXfXfXrX9XXX'.rX0XkX4XfXlXjXkXkXlXkXlXkXkXfXlXlXcXlXqXdXdXgXdXwXsX`.c.0.7.0.i.p.u.t.6.",
": > 4 8 0 r a M ] w.%XzXsXzXsXsXgXsXuXfXuX0XfXkXrXkXA.P kXhX1.  L fXlX0XfXfXfXkXlXkXgXlXlXcXvXcXxXxXvXxXxXxXQ.0.2.2.5.a.i.u.0.t.",
"; > 4 0 t u j C ) 9.+XxXzXsXiXiXiXuXuXuXuX0XfXhXrX0X0Xx 4X9XO     C.cXrXhXhXrXkXjXlXlXgXcXcXcXvXvXvXvXvXvXzXL.$._ { >.5.5.5.+.+.",
"& ; 4 0 t p j N ) 3.~.zXzXiXpXiXgXuXuX0X6X0XjXkXhX5XkX&.Q P   .   E lXhXkXhXfXkXfXkXcXfXcXcXvXxXxXvXvXvXvXuXM.X.H J H +.+.| ( _ ",
"& - > > 0 u a n H >.R.sXzXiXpXzXgXpX0XuXuXrXjXfXfX5XrX5X+         L lXkXkXkXhXhXkXkXcXjXcXcXvXvXvXvXvXvXvX*Xj.{ D c c Z C D Z _ ",
"& - , > q t u v J X.N.pXxXiXpXiXiXiXuXuXgX0XuXrX5X0XS.C.3 1       . '.lXhXlXjXhXlXcXcXjXcXcXvXvXvXvXvXvXvX Xw._ C c p j Z D D O.",
"- - : > 4 0 i a D ] j.%XvXzXiXxXgXsXsXsXuX0XuX5XrXS.E C.f.*     .   L lXkXkXlXkXlXcXcXcXcXxXvXvXvXvXvXvXvXQ.3.( Z c c j n H ` O.",
"- % - - > 8 t a m ) w.}.xXzXzXxXzXiXiXfXfXgX0XfX&Xg.0XcXS.  + + +     S.cXkXlXjXlXlXcXcXxXcXvXvXvXvXvXvXgXB.$.H Z c p p j D | O.",
"V d q : : q t i v I :.E.gXvXzXxXzXiXpXuXgXgXuXfXD.5XrXfXL   .         &.vXkXlXlXxXlXcXcXxXxXvXvXvXvXvXvX5Xk.X.J n j a t t a I ' ",
"%.@.Y & : 4 0 i v F X.N.8XvXsXzXzXgXiXiXsXfXgX0X0XfX0XuX1             W vXfXgXlXjXlXcXvXvXvXvXvXvXvXvXvX Xw._ D c u t t 0 8 t g ",
"@.@.[ g - 4 8 s v K ' j.&XxXgXiXxXxXiXiXuXfXgXuXrXfXfX5XO         .   W cXfXlXcXxXcXcXxXvXvXvXvXvXvXvXxX!.:.( b u t t 0 0 8 4 4 ",
"@.@.,.U d V b F T V I ,.~.zXzXiXzXsXiXiXsXuXuXfXuXfXfX5XO             Q cXfXcXjXlXcXvXvXxXvXvXvXvXvXvXpXM.X.F v i t t 0 0 q 4 > ",
":.h.z.%.%.$.$.>.$.I ] ,.M.pXxXsXzXzXzXxXxXuXaXfXuXjXlX&X.             &.cXgXlXxXcXjXcXvXvXvXvXvXvXvXvX+Xe.' M s t t t 0 0 > 5 > ",
"w.n.n.x.N.z.z.w.:.3.v.v.V.$XzXzXxXxXzXvXxXsXiXgXcXuXcXZ.              d.vXfXjXxXxXxXxXvXvXvXvXvXvXvXxXE.:.T b a t t 0 0 5 5 5 > ",
"G.G.N.J.J.I.K.J.u.0.u.c.I.`.sXvXvXvXvXxXzXzXgXsXjXuXcX1.          .   W vXgXuXxXxXvXxXvXvXvXvXvXvXvX<Xk.} F v u t 0 0 0 5 5 > > ",
"c.G.n.K.G.n.P.L.c.0.u.c.N.W.;XdXyXzXxXzXzXxXzXuXuXgXuX+X*             g.xX&XgXjXvXxXvXvXvXxXvXvXvXvX'.<.) K s y t e 0 6 5 5 5 > ",
"c.H.c.F.G.c.G.P.u.3.c.J.J._.).oX X2X8X8XsXzXzXiXiXxXgXcXD..         P pXh X d.vXzXvXvXvXvXvXvXvXvXpXM.%.I v i t t 0 0 0 6 > 5 > ",
"u.F.i.F.G.G.I.H.u.u.G.P.T.).).OX.X:X2X;X2XsXdX6XuX1X'.8Xf.          1 1     * 6XvXvXvXvXvXvXvXvXvX'.d.' B f y t r e 0 0 0 5 5 > ",
"t.t.t.s.H.H.G.F.a.H.P.T.T.].].OX|. XoX-X2X2X2XdXxXY   * O                     E.vXxXvXvXvXvXvXvXpXM.%.U b a t t r r e 0 6 5 5 > ",
"=.;.4.t.s.i.i.i.i.F.P.P.T./.].|.|.|. X2X8X8X8XxX1X*                           &.vXvXvXvXvXvXvXvX^.l.' K z u t t r r r 0 6 6 6 5 ",
" . .=.r.s.s.r.r.a.F.I.U.P.T.).).].oX;X2XyXdXzXvX#X.                           W vXvXxXvXvXvXvX*XM.%.U b j u r u t r 0 0 0 6 6 6 ",
" .~  .=.;.;.r.4.6.c.F.F.v.I._./.).|.-X-XuXsXzXvX#X.                       .   D.vXvXvXvXvXvXgXE.e.' F v u t u r r t t 0 0 6 6 4 ",
"/ ~ ~  .=.=.*.r.;.-.6.$.X.v.P.T.W.Q.;X1XiXsXsXvX*X+                         3 iXvXvXvXvXvXvX}.k.@.T M k j t r u t r r 0 r 0 6 4 ",
"../ !  . . .| *.' I ) I I ) q.v.z.x.Q.1XsXiXsXzXvXW                       2 iXvXvXvXvXvXvX%XV.,.' D n j u u u u t t t t r 6 7 4 ",
"-.%./  . ./  ...V g z B b l ' ' ' 8.k.'.sXxXzXzXzXvXP                 1 O =XvXvXvXvXvXvX6XR.e.} H M n p u u u u t t t t 6 7 4 > ",
"h.-.^ l ! / ' / V w g b g f b b U [ <.M.+XzXzXzXzXzX*X1 L 1   2 3   O *XxXxXxXvXvXvXvXpXQ.z.$.) D n j j p u u u u t t 6 6 4 > > ",
"v.v.[ g S I V f S g w g r e y s l U [ <.M.+XiXvXvXzXvX*XiXD.  C.g.  D.vXvXxXxXvXvXvX8XQ.x.>.] G Z c j p u u u u t t r 6 7 4 > > ",
"v.v.-.l y 9 d d g b e y w 0 e t f M I } 9.V.^.iXvXvXxXvXvX*X. 3 2   *XvXxXvXvXvXvX1XQ.m.,.{ H C n c p p u u t t r r 6 6 7 4 > = ",
"v.w.-.' S g S g 9 y e 7 9 r r t a b D ( } 9.M.~.<XvXvXvXvXZ.  .     Z.vXxXvXvXgX&XR.m.,.{ ! C n c j p p p t t r r 6 7 4 > > : = ",
"v.;. .Y ^ ^ g w 9 0 r r r r t r i j N D ) } 8.m.R.+XpXxXvXZ.        Z.vXvXzX<X'.K.j.>.{ T D n c p p u t t t r 6 6 6 4 > > = = = ",
"-.-.' l k U g 7 r r r r r u t t t a c n D T } :.j.B.E.}.0XZ.    .   C.sX&X^.L.N.w.>.| H A n j j p u u t r 0 6 6 7 4 > > : : - % ",
"[ } U g y g 0 0 r r t t t u u u t p j j m D ( ] $.q.j.m.!.d.        &.{.V.m.e.3.X.' ^ D n c j p u u t t e 0 8 5 4 > > : = - = = ",
"g U U 9 > 4 7 r r r r u u u u u t p j j v Z D H _ } :.,.z.@.        R N.8.3.>.{ ( H C n j j p u u r r r 0 6 6 5 > > > - > - % % ",
", 9 g q > > 7 0 r r r t u u u u p p p j c c Z A J ( _ { :.U         Y 3.X.{ ( H D C c c j p p t t r e 0 0 6 6 4 4 > > : = = % # ",
", $ $ , ; 4 7 0 r r r t t u u u p t p p j c c n N D J H _ d         V ] ( H J C c c c c j u u t t r r 0 6 5 5 4 > > - - % % # @ ",
", $ $ ; ; > 7 7 7 r r r r t t t t t u p u p j j j v N M H ,         d ! C C N c p p j p u u t t 0 0 6 6 6 5 > > : - % % % # @ @ ",
"# # = ; ; > ; 7 7 7 r r r r r r t t u t t u u p i a j v N ,         9 C n v c p u t u t t r 0 r 0 6 0 5 6 4 > > - = $ # @ @ @ @ ",
"= = = = ; ; ; 7 7 7 7 7 6 r r r 0 t t t 0 r t t t t u i j 8         q k u p p t t t t t 0 0 0 q 5 q 5 5 4 > - - = % & # # @ % @ ",
"# # = = = ; ; 7 4 4 7 7 6 r 7 7 6 0 6 6 6 6 0 t t r t t u >         > p t t t t t 0 0 q 8 5 4 4 5 5 4 > > - - - = & & & # # @ @ ",
"# # # = = ; ; 7 7 > 4 4 7 7 7 7 6 5 5 q 0 8 0 0 0 r 0 t i >         > u 0 t t 6 0 0 6 5 5 5 4 4 4 4 4 > > - - = & = = $ # % # # ",
"# # # = = ; ; 7 7 > > > > 4 7 7 5 5 5 5 6 8 8 6 0 r r 6 r :         > t 0 t 6 6 5 4 4 > 4 # X 4 > > > > - - ; - - - - = & $ # # ",
"# # # # = ; ; > 4 7 > > > 4 4 4 5 5 5 4 5 6 6 5 8 6 0 6 e :         : t 6 6 8 6 4 5 o o 5 o . 4 > > > > ; ; ; = - - - = & $ # # ",
"# # # # = = ; ; > > > ; > > > 4 5 > 5 > > 5 5 5 5 5 5 5 0 &         : 0 6 6 5 5 4 5 X X 4 @ . > > > > - = ; - ; - = = = = # @ @ ",
"@ # # # # = = = ; > > > ; > > > > 5 > 5 > > > 5 > 4 4 > 8 @         # 5 5 5 7 4 > 5 X . 4 o   > > > > > ; ; - ; ; - = = # # @ @ "
};
