/* XPM */
static char *result[] = {
/* columns rows colors chars-per-pixel */
"64 64 220 2 ",
"   c #060609",
".  c #08060A",
"X  c #0B0A0D",
"o  c #120B0E",
"O  c #060F12",
"+  c #0D0D14",
"@  c #0F0F18",
"#  c #140D11",
"$  c #1A0F13",
"%  c #100F19",
"&  c #071012",
"*  c #0B1316",
"=  c #0F141A",
"-  c #131215",
";  c #12111B",
":  c #171519",
">  c #1B151A",
",  c #1B1B1C",
"<  c #230D14",
"1  c #2B0E16",
"2  c #350F16",
"3  c #320E19",
"4  c #21141B",
"5  c #2B1218",
"6  c #251B1C",
"7  c #291D1E",
"8  c #3C1116",
"9  c #34151C",
"0  c #3C121C",
"q  c #161521",
"w  c #181723",
"e  c #161A22",
"r  c #1B1A26",
"t  c #1D1C2B",
"y  c #211D21",
"u  c #211F2E",
"i  c #311D21",
"p  c #391E22",
"a  c #241F30",
"s  c #252426",
"d  c #2D2425",
"f  c #23222C",
"g  c #29262B",
"h  c #2A2A2A",
"j  c #332224",
"k  c #34262B",
"l  c #392728",
"z  c #3B2B2C",
"x  c #3C302F",
"c  c #242333",
"v  c #2E2B32",
"b  c #362D31",
"n  c #3C2B37",
"m  c #323232",
"M  c #3A3536",
"N  c #3B3A3B",
"B  c #42111D",
"V  c #49131A",
"C  c #56161C",
"Z  c #63161E",
"A  c #6B171E",
"S  c #4C1322",
"D  c #451822",
"F  c #551523",
"G  c #5C1526",
"H  c #631629",
"J  c #6B1928",
"K  c #731921",
"L  c #7D1B23",
"P  c #721A2F",
"I  c #6E1E30",
"U  c #472628",
"Y  c #442D2C",
"T  c #54262A",
"R  c #4A312E",
"E  c #422E3D",
"W  c #592D30",
"Q  c #443534",
"!  c #4D3433",
"~  c #4F3639",
"^  c #4A3B39",
"/  c #523534",
"(  c #563835",
")  c #593A36",
"_  c #503638",
"`  c #553A38",
"'  c #5C3D3A",
"]  c #622328",
"[  c #782831",
"{  c #613F3B",
"}  c #57413D",
"|  c #66423E",
" . c #68433F",
".. c #352B45",
"X. c #3E314E",
"o. c #433F40",
"O. c #3C4040",
"+. c #444343",
"@. c #484747",
"#. c #464848",
"$. c #4C4B4B",
"%. c #564947",
"&. c #545353",
"*. c #595757",
"=. c #55565B",
"-. c #5A5859",
";. c #6C4441",
":. c #674945",
">. c #714745",
",. c #744B45",
"<. c #7A4E49",
"1. c #67504B",
"2. c #6A534D",
"3. c #72524C",
"4. c #7C514D",
"5. c #694D5D",
"6. c #6D5651",
"7. c #695C58",
"8. c #775855",
"9. c #63605F",
"0. c #7C615A",
"q. c #585B66",
"w. c #5F6261",
"e. c #676667",
"r. c #717372",
"t. c #891D26",
"y. c #931E28",
"u. c #9D202A",
"i. c #842C33",
"p. c #9D2B37",
"a. c #A9222D",
"s. c #B0242F",
"d. c #A52C36",
"f. c #B32530",
"g. c #B42C36",
"h. c #AB333B",
"j. c #B3343B",
"k. c #B53941",
"l. c #984E4B",
"z. c #84544E",
"x. c #8B5952",
"c. c #955E58",
"v. c #B24B4F",
"b. c #85645C",
"n. c #966159",
"m. c #9C635C",
"M. c #A1665E",
"N. c #A2685F",
"B. c #896B66",
"V. c #8C6D65",
"C. c #946B63",
"Z. c #98756C",
"A. c #827A77",
"S. c #9D7B71",
"D. c #987C7C",
"F. c #A56962",
"G. c #A76965",
"H. c #AC6D65",
"J. c #B06E67",
"K. c #A97168",
"L. c #B17167",
"P. c #B4736A",
"I. c #BA766C",
"U. c #BC786E",
"Y. c #A57D73",
"T. c #B67973",
"R. c #B47C73",
"E. c #BD7C72",
"W. c #C6746F",
"Q. c #A78379",
"!. c #BA8378",
"~. c #BA847B",
"^. c #C28276",
"/. c #C48479",
"(. c #C78A7E",
"). c #CA8A7E",
"_. c #6E7380",
"`. c #939191",
"'. c #B58D81",
"]. c #BB8C81",
"[. c #BC9386",
"{. c #BE9588",
"}. c #A19F9C",
"|. c #9EA1AD",
" X c #C38D83",
".X c #CC8F83",
"XX c #D28B83",
"oX c #C59186",
"OX c #CE9286",
"+X c #CB948A",
"@X c #C4998C",
"#X c #CC9A8E",
"$X c #D29387",
"%X c #DC9389",
"&X c #D39A8D",
"*X c #CA9E90",
"=X c #D49D90",
"-X c #DB9E91",
";X c #D5A18E",
":X c #CDA193",
">X c #D5A294",
",X c #DAA394",
"<X c #DCA798",
"1X c #D6A899",
"2X c #DEAB9C",
"3X c #E1AD9E",
"4X c #CCABA3",
"5X c #E2AFA0",
"6X c #E6B3A3",
"7X c #E8B5A5",
"8X c #EBB8A7",
"9X c #ECB9A9",
"0X c #EABFBF",
"qX c #C3C2BF",
"wX c #DABFC5",
"eX c #CDC8C3",
"rX c #D6D3CE",
"tX c #EBD3D3",
"yX c #E3E1DC",
"uX c #EEEDE9",
/* pixels */
"* * * * * * * * * * * * * * * * * * * * * * * * * & & & - & & & & & * * * & & & * * * * * * * * * * * * * * * * * * * * * * * * ",
"- - - * - - * o = e e e e e e e e q = * * * * @ = e.r.r.9.9.9.9.w.w.9.9.w.w.9.O.+ = * = * & = * * * = e e e e e = * - # - - - * ",
"$ $ $ $ $ $ $ o r c c c c c c c c t % N f q @ @ q.yXuXrXrXqXeXeXqXeXeXrXrXqXqX}.v ; % @ X   = ; % % q c c c c c % # $ $ $ $ $ $ ",
"$ $ $ $ $ $ $ o r c c c c c c c c q v e.v r % + }.uXuXeXqXeXqXqXeXqXqXqXqXqXqXqXr.: @ g 7.r @ @ % % ; t c c c c - # $ $ $ $ $ $ ",
"$ $ $ $ $ $ $ o t c c c c c c c t ; =.-.t ; + M qXuXyXeXeXeXqXeXqXqXqXqXrXqXqXqXA.: + f `.+.+ % ; ; % r c c c c - $ $ $ $ $ $ $ ",
"$ $ $ $ $ $ $ o r c c c c c c c t ; +.N u ; + h r.r.e.9.9.9.9.9.0.9.e.w.0.9.e.0.g ; ; + N N + % ; % % r c c c c ; o $ $ $ $ $ $ ",
"$ $ $ $ $ $ $ o r c c c c c c c w : m e u q + + , , , , , , , , s , , , , , , , % c % O , d O % % ; % t c c c c - # $ $ $ $ $ $ ",
"$ $ $ $ $ $ $ o r c c c c c c f ; + , e u ; ; M @.@.+.@.@.@.@.@.O.} #.#.#.#.} $.s a % : h , + ; ; % % r c c c c w # $ $ $ $ $ $ ",
"$ $ $ $ $ $ $ # u c c c c c c c ; ~ ` # c @ : &.-.=.*.*.*.-.-.-.w.*.*.*.*.*.*.*.h a ; + , Y - + ; % % r c c c c f + # $ $ $ $ $ ",
"$ $ $ $ $ $ # ; c c c c c c c r % z.G.l a ; + s s s d s s s s s h s s h s s s s > f ;   Y x.$ ; % ; % t c c c c t # $ $ $ $ $ $ ",
"$ $ $ $ $ $ # ; c c c c c c c = % 4.W.` t ; O X / ,.,.,.,.,.,.,. . . .3.,.,.,.R X : : 6.N.n.$ % ; % % r c c c c u o $ $ $ $ $ $ ",
"$ $ $ $ $ $ # # u c c c c c c e % 4.E.` a ; X # ! J.I.U.U.U.I.I.^.I.I.!.I.U.H.Y X % ; n.U.L.! + ; ; ; u c c c c t % $ $ $ $ $ $ ",
"$ $ $ $ $ $ $ X t c c c c c c q % 4.U.` a % $ { >./ ( F.I.I.I.I.W.I.U.U.m./ ) / w ; - x.U.W. .+ % ; @ r c c c c r X $ $ $ $ $ $ ",
"$ $ $ $ $ $ o + t c c c c c c q z F.U.) a % | G.c.;.>./ C.,X>X-X;X;X,Xb.}  . .{ f ; / H.(.,Xb.+ ; % % r c c c c : X $ $ $ $ $ $ ",
"$ $ $ $ $ $ # O t c c c c c c q ~ P.E.' t % <.P.J.H.m.z.@X7X7X6X8X7X7X{.z.M.L. .; + 6 l z 2.0.O % ; % r c c c c q X $ $ $ $ $ $ ",
"$ $ $ $ $ $ # + t c c c c c c ; ~ F.T.1.u % C.G.J.U.J.H.+X7X7X7X8X7X7X).N.P.W. .+ @ .     - 7 + ; ; % r c c c c w X $ $ $ $ $ $ ",
"$ $ $ $ $ $ $ * t c c c c c t @ ~  X1X6.t ; Q.=XR.&X(.P.H.<X7X7X7X7X>XH.P.U.M.7 @ o.8.F 5._.# + % ; % r c c c c w X $ $ $ $ $ $ ",
"$ $ $ $ $ $ # X t c c c c c r O ~ =X9X6.t % ^ 2X2X6X2XE.G.*X7X7X7X7X@XG.I.P.R ; q k i.G a |.q.+ ; % % r c c c c q X $ $ $ $ $ $ ",
"$ $ $ $ $ $ $ X a c c c c c t @ ~ E.5X6.; @ d 1X8X7X2X^.J.R.5X7X7X5XP.L.I.,.% + % + 5 < F wX`.+ % % % r c c c c q o # $ $ $ $ $ ",
"$ $ $ $ $ $ # X t c c c c c t @ ~ ;.R.'.s @ d 1X2X2Xb.N.P.H.5X7X7X2XF.I.n.7 =., + + V V d.tX`.+ @ + @ t c c c t % X $ $ $ $ $ $ ",
"$ $ $ $ $ $ $ X q u c c c c r % w | R l : r d @X6.z ,.L.P.K.2X7X7X2XH.H.{ ` _.y $ G 3 B g.tX`.+ + + % r c c c t % X $ $ $ $ $ $ ",
"$ $ $ $ $ $ $ O ; a c c c c r % % 3.K.%.% a + d i z.G.I.G.+X7X7X7X6X+XG.x.e.|.u $ y.y.V h.0XA.+ + + % r c c c t % X $ $ $ $ $ $ ",
"$ $ $ $ $ $ o X ; a c c c c t @ ; 4.m.0.b t . R m.P.G.L.G.=X7X7X6X7X#XF.~.*X%.+ 6 d.g.D D.4Xd +   + @ r c c c t % X $ $ $ $ $ $ ",
"$ $ $ $ $ $ $ + q c c c c c r % ; 4.^.*XQ + > c.P.c.F.I.G.=X7X7X7X6X=XH.-X5XQ . `.3X,X#X1X[.> @   + @ r c c c t # X $ $ $ $ $ $ ",
"$ $ $ $ $ $ $ X : u c c c c t % ; <..X7XY.% # ! c.J.I.H.E.6X7X7X7X7X5XE.+XR.n ; Q.9X7X5X(.C.# @   + % r c c c t + X $ $ $ $ $ $ ",
"$ $ $ $ $ $ # X ; u c c c c r % % 4.).7X'.% + %.W.U.E.H. X7X6X7X7X6X6X X*XB.X %.5X6X7X6X5X].> O   + % r c t t t + o $ $ $ $ $ $ ",
"$ $ $ $ $ $ - o @ q c c c c r % ; 4.).7X'.> + _ E.E. XE.3X7X7X7X7X7X7X2X~.2.+ 6.7X7X6X7X8X{.: X   + % r c r t t + # $ $ $ $ $ $ ",
"$ $ $ $ $ $ $ o + e c c c c r % % <.).7X+XD + Y E.-X].>X7X7X7X7X7X7X7X7X[.d x #X7X7X7X7X8XoX: X X @ @ r c r t t X $ $ $ $ $ $ $ ",
"$ $ $ $ $ $ $ o + q c c c c r % ; 4.).6X+XI 4 w Y.+X+X6X7X7X7X7X7X7X7X7X6XB.S.7X7X7X7X7X7X[.: . . @ @ r c ; t r X $ $ $ $ $ $ $ ",
"$ $ $ $ $ $ $ o + q c c c c t ; ; <..X7XXX[ p q 8.].6X7X7X7X8X7X6X7X7X6X6X2X~.<X7X7X7X6X7X@X: . + @ % r t ; r q X - $ $ $ $ $ $ ",
"$ $ $ $ $ $ $ o + % t c c c c ; ; 4..X6X%Xp.K.n k *X7X7X>X[.[.2X7X7X7X7X6X7X>X~.6X6X7X7X7XQ.: + @ ; % r q ; r ; X # $ $ $ $ $ $ ",
"$ $ $ $ $ $ $ o + % t c c c c q % 4.).6X%Xg.%XV.Q >X7X2X7.> y Q.9X6X7X7X7X6X<X~.5X7X7X7X5X^ ; . % % ; w ; w q @ X $ $ $ $ $ $ $ ",
"$ $ $ $ $ $ $ o @ @ t c c c c q % <.XX7X%Xg.%X].].7X7X'.X.n 2.Z.6X6X7X6X7X7X7X X@X7X7X7X3XQ ; X % % w w ; r q % + # $ $ $ $ $ $ ",
"$ $ $ $ $ $ $ o + @ r c c c c q % <. X7X%Xk.XX X=X7X>XY.X.Q !.6.:X7X7X7X7X6X7X#X X6X7X7X#Xb y u ; % w w ; w % % X # $ $ $ $ $ $ ",
"$ $ $ $ $ # o o + @ t c c c c q % <./.5X%Xp.T.].7X1X7.1.n n !.2.:X6X2X6X7X7X7X6XR.2X7X7X8.; ~ ^ q ; w % % % % % X o $ $ $ $ $ $ ",
"$ $ $ o o - - X @ @ t c c c c q % z.I.=X%Xp.P.oX7XS.X.w t k !.2.:X<XOX6X6X7X7X7X].=X6X8X0.; ( j q % ; % % % % % + X # o o # $ $ ",
"o o o - * i W 7 + % r a a u c e % z.T.XXW.f.v.3X9XS...q : / /.2. X(./.6X7X7X7X7X,X!.6X8XC./ | X r % % % ; % % % 5 T 7 * - o o # ",
"# - 7 W W i.f.t.$ @ @ a t t c u ; ' J.P.j.j.T.7X9XS.a + 6 m.).b.x.I.OX6X7X7X7X6X2XoX6X6XOXH.! + w % % ; ; ; % + K f.i.W W 6 - # ",
"j W [ s.s.f.f.s.2 @ q t e a c u % > M.I.j.W.6X7X8XS.a 4 | F.).@X} /.5X7X6X7X7X7X6X8X6X8X&Xn.# q q @ % % % ; % + K f.f.f.a.[ W j ",
"] f.s.s.f.f.f.s.0 @ ; r ; t c a ; # z.I.d.G.7X7X8XS.r ~  .F.).@X:.,X7X7X7X7X7X7X6X6X8X5X).,.o w ; @ % ; ; % ; @ K f.f.f.f.f.s.T ",
"B K t.f.f.s.s.s.8 + % t % t c a ; % i l.k.(.9X7X9XQ.j 4. .^.;X@X2.6X7X7X7X7X7X7X7X7X6X$XL.j + w ; % ; ; % ; % + K f.f.f.f.t.A 9 ",
"s , j ] A u.s.s.8 @ ; r % q c a q ; q A k.-X7X7X8X~.3. . .^.6X@X6.6X7X7X7X7X7X6X7X7X6X^.c.6 O ; q % % % ; ; % + t.f.t.A A 9 , , ",
"m N } s h D a.s.8 + % q r % a c t ; q B k./.5X7X7X@X4. . ./.6X@X6.6X7X7X7X6X7X6X7X8X,XL.z + + + r ; % ; % ; % + V A D h , h m - ",
"m m &.&.*.^ ] a.J # % % q @ q c t ; q o i.P.+X6X7XQ.<.x. .^.6X@X2.,X,X,X6X7X6X7X7X8X).x.# ; % ; w % % % ; % % + , s +.-.} m m , ",
"m m @.*.*.&.p a.u.$ % % % % w c t ; w . T J.W.7X8XY. .x. ./.6X@X1.;X;X;X,X3X7X7X7X2X^.' % ; + q ; % ; ; % ; % + N -.*.*.O.m m : ",
"m m N *.*.&.j a.u.< % % % @ q f t ; w + q x.E.=X8XZ.<.x. .^.6X@X6.6X8X6X,X3X7X6X8X,Xz.> @ - + r ; % % ; % % ; + N *.*.*.#.m m = ",
"m m N -.-.&.p a.u.$ % + @ % ; t t ; w % + j G.^.7XQ. .x. .^.7X@X:.OX;X6X7X7X7X7X6X!.7 * % % + q ; % % + = % * , } *.*.*.#.m h - ",
"m m N *.*.*.x L u.$ % + + % ; t t % w ; + % ` P.).Y. .x.| ^.,X@X} I.&X6X7X7X7X7X#X/ o = ; @ + w ; % + + = = * s *.*.*.&.O.m , o ",
"m m N $.*.-.#.C u.$ + 1 3 # ; w t @ q ; % % > <.W.Z.,.N.| M.).*X:.&X6X6X7X6X6X3X4.% % ; % # % q % ; + + % ; + s -.-.-.$.M m s o ",
"s m m @.*.*.&.Y L $ * < < + ; ; r % q % + % 4 ( C.b.,.N.| N.$X@X6.6X7X6X7X7X5XZ.( : % % % % ; w % % X + % % $ D @.-.-.$.m h > o ",
", m m +.*.*.*.m Z < * +   + = ; r % q ; + @ 6 x. .>.,.x.| ^.,X@X6.6X6X8X7X7X(.| x.4 % % % @ % w % + < 2 % @ < Z N -.&.+.M h o $ ",
": m m @.*.*.-.N K C + + 3 1 % ; w q q ; % @ 6 H.z.{  .,. ./.7X@X2.6X7X6X6X,X,.x.F.4 % % % + q q % + 2 C + # < Z N *.&.N m , o $ ",
": m m N &.-.-.N L L + @ C 1 + ; q q q q * + 6 H.L. .) ) n.^.3XV.Q.8X6X8X*X} ,.P.F.4 * ; % + w % % + 8 C + @ < Z N -.#.m h - $ $ ",
"- h m m &.*.-.m L L + + V 1 * @ ; q @ w % + 7 H.W.z.| ( L.^.2X1.>X6X6XZ.} ,.H.I.N.4 % ; % + w % ; + 1 B + + Z A N -.O.m m - o $ ",
"o s m m } *.*.#.F Z ; % 0 S # @ % % % w + + 7 H.I.4.| ( L.&X6X1.#XV.} d  .I.I.I.F.> + ; @ + r ; ; + 1 3 + % K U $.-.O.m s # $ $ ",
"# - h m m *.*.*.k V w % 0 G # % % ; % q : X  .P.I.4.| / P.,X6X} ^ 6.v ..z <.I.I.P.| + ; + q q % @ % S 2 + + V k *.-.} m , o $ $ ",
"$ * h m M #.*.*.^ i < + B G + ; % ; % ; r + x.U.I.<.| ( P.<X6XQ z *XV.f c k c.U.U.z.@ @ + w ; % % # S $ + 1 F k *.&.M h - # $ $ ",
"$ o h m m +.*.*.$.9 3 . 0 G # % ; % % ; q } T.I.I.<.| ( P.1X6X:.Q.8X>XQ.b %.>.H.U.T.^ + 1 4 % % % $ B + + 2 D +.-.#.m s o $ $ $ ",
"# o , m m N &.*.$.i 3 + B P 3 % % ; % ; q 0.,XE.I.z.} ( P.<X7XQ.B.6X5X3XC.m.` G.E.-X1.. 0 S # % + 0 S + $ G 7 &.&.N m s o $ $ $ ",
"$ $ o s m m $.-.$.i 3 % 0 P B + ; % % ; q 8.6X+XI.<.| ) P.,X7X@X2.:X} b.U.<.<.(.<X6X1.$ G 3 % % + B 1 + S S M *.+.m m , # $ $ $ ",
"$ $ o y m m N &.*.n 0 q 4 H H < @ % ; @ l @X7X6XOX| ) z.P.(.;XK.d ! z.} j | oX3X7X'.0.D H $ @ @ < G $ o G B +.$.m m m - $ $ $ $ ",
"X X   y m m M *.-...0 4 q G P 1 @ % % + x 3X7X7X*X} ) n.U.U.U.n.R n.P.m.R [.6X6X7X1X@XE H < @ @ 1 0 + 0 G l &.#.m m , X X X # $ ",
"h h h , h m M &.-.Q S S 0 P P S # @ * o Q 2X7X7X@X| ) n.U.I.<.^ ~.5X&XW.b.V.6X6X6X7X1XW H < @ + 3 3 < H F m &.N m s , h h y o X ",
"m m m , h m m @.=.&.p G H P P H # % = * Q.7X7X7X*X} ) n.U.n.3.[.6X8X5X<X,Xb.'.8X7X7X6XZ.< # @ o G H G P j O.} m m s , m m m h h "
};
