/* XPM */
static char *result[] = {
/* columns rows colors chars-per-pixel */
"64 64 242 2 ",
"   c #040B14",
".  c #060D19",
"X  c #080F1D",
"o  c #07101D",
"O  c #09111E",
"+  c #071321",
"@  c #091423",
"#  c #0B1925",
"$  c #081728",
"%  c #0A1A2A",
"&  c #121C2A",
"*  c #0C1D33",
"=  c #11212E",
"-  c #0F2034",
";  c #142534",
":  c #192635",
">  c #172836",
",  c #1B2D3C",
"<  c #1D303F",
"1  c #222D3D",
"2  c #192D47",
"3  c #1E3141",
"4  c #1D324B",
"5  c #223343",
"6  c #2A3647",
"7  c #243649",
"8  c #233A4C",
"9  c #2A394D",
"0  c #2E3A4C",
"q  c #253D52",
"w  c #2C3C53",
"e  c #283E59",
"r  c #1D3E6A",
"t  c #284157",
"y  c #2A435C",
"u  c #32435B",
"i  c #374558",
"p  c #2B4767",
"a  c #374966",
"s  c #2A4A76",
"d  c #375070",
"f  c #3A5278",
"g  c #414F63",
"h  c #465569",
"j  c #4B5A73",
"k  c #475978",
"l  c #505F77",
"z  c #516077",
"x  c #54637C",
"c  c #30548C",
"v  c #3E638C",
"b  c #3B6498",
"n  c #2B5BAD",
"m  c #315BA9",
"M  c #3766A9",
"N  c #336AAC",
"B  c #2D66BA",
"V  c #386AB9",
"C  c #3C77BC",
"Z  c #435D83",
"A  c #486589",
"S  c #596984",
"D  c #586986",
"F  c #446A95",
"G  c #576E94",
"H  c #48749C",
"J  c #5B7499",
"K  c #627394",
"L  c #657699",
"P  c #637A9C",
"I  c #697A9E",
"U  c #4C75AE",
"Y  c #4678A9",
"T  c #416BBB",
"R  c #467DB5",
"E  c #637DA3",
"W  c #6B7DA2",
"Q  c #2B66C6",
"!  c #2E6AC5",
"~  c #2E6CCC",
"^  c #326DC3",
"/  c #3669C7",
"(  c #3875C9",
")  c #2D6DD2",
"_  c #336FD1",
"`  c #2E74D7",
"'  c #3679D7",
"]  c #2D7BE1",
"[  c #307EE3",
"{  c #4772C4",
"}  c #4777C6",
"|  c #4479D5",
" . c #4A81AC",
".. c #5886A9",
"X. c #4A84B4",
"o. c #4684B8",
"O. c #4C8ABB",
"+. c #5589B8",
"@. c #5E90B0",
"#. c #6D81A5",
"$. c #6682A9",
"%. c #6E84A9",
"&. c #7186AA",
"*. c #748AAE",
"=. c #6793AB",
"-. c #658AB5",
";. c #758DB2",
":. c #778EB3",
">. c #6393B4",
",. c #6899BD",
"<. c #7B92B5",
"1. c #7992B8",
"2. c #7C95BA",
"3. c #3D83CC",
"4. c #3C82D4",
"5. c #3C84DB",
"6. c #3887DE",
"7. c #3382E4",
"8. c #328AED",
"9. c #3589EC",
"0. c #388AE8",
"q. c #3A95E9",
"w. c #4987C7",
"e. c #5489C8",
"r. c #4D92C8",
"t. c #5292C3",
"y. c #5996CA",
"u. c #4888D8",
"i. c #548CD6",
"p. c #4D93D9",
"a. c #5899D7",
"s. c #6699C8",
"d. c #7094CD",
"f. c #649BD4",
"g. c #58A3DD",
"h. c #6AA3CC",
"j. c #76A8C9",
"k. c #6AA8D9",
"l. c #75ACD6",
"z. c #72B2D6",
"x. c #78B4D9",
"c. c #7AB4DB",
"v. c #478AE6",
"b. c #4897E6",
"n. c #5599E4",
"m. c #5190ED",
"M. c #5498F3",
"N. c #669EE9",
"B. c #5AA6E7",
"V. c #52B1EE",
"C. c #59A7F5",
"Z. c #66ABE6",
"A. c #76A2E4",
"S. c #6BB3E8",
"D. c #77B7E5",
"F. c #75BBEC",
"G. c #7ABCEB",
"H. c #71B9F3",
"J. c #56C6E6",
"K. c #7EC2E1",
"L. c #7DC1ED",
"P. c #72D4EF",
"I. c #7CC2F1",
"U. c #7BE2F5",
"Y. c #8195B8",
"T. c #839ABE",
"R. c #849EC3",
"E. c #839FC8",
"W. c #86A0C7",
"Q. c #88A4CB",
"!. c #8AA5CC",
"~. c #82B5CF",
"^. c #85ACD7",
"/. c #8EAAD1",
"(. c #92AED5",
"). c #84BAD9",
"_. c #96B2DA",
"`. c #9AB5DD",
"'. c #87BCE5",
"]. c #8DB6EF",
"[. c #99B9E7",
"{. c #9EBAE4",
"}. c #A2BEE8",
"|. c #87C1D9",
" X c #8BC3DC",
".X c #92C7DE",
"XX c #8BC5E4",
"oX c #84C4EC",
"OX c #8AC7E8",
"+X c #8CCAED",
"@X c #93CCE4",
"#X c #93CBEB",
"$X c #96C8EB",
"%X c #98D3E6",
"&X c #95D3EC",
"*X c #9BD4EC",
"=X c #9EDAED",
"-X c #84C5F1",
";X c #8CCBF2",
":X c #8ACBF6",
">X c #94CCF3",
",X c #97CCF7",
"<X c #89D4F3",
"1X c #94D3F3",
"2X c #9BD5F2",
"3X c #9DDBF4",
"4X c #95D3FA",
"5X c #9CD4FA",
"6X c #97D8FC",
"7X c #9CDAFB",
"8X c #A5C1EC",
"9X c #A6D7ED",
"0X c #A3DBEE",
"qX c #A9C5F1",
"wX c #ABCAF7",
"eX c #B0CFFA",
"rX c #A3DDF3",
"tX c #A7D8F7",
"yX c #ABDEF3",
"uX c #A2D4FB",
"iX c #A3DDFB",
"pX c #B4D4FB",
"aX c #91EEF5",
"sX c #A7E3EE",
"dX c #A5E1F3",
"fX c #ABE3F5",
"gX c #ACE9F5",
"hX c #A5E2FA",
"jX c #ACE4FA",
"kX c #ADE9FA",
"lX c #B1EBF6",
"zX c #B3E6FA",
"xX c #B4EAFC",
"cX c #B9EDFC",
"vX c #BAF3FC",
"bX c #B9F5FC",
"nX c #C3DEE5",
"mX c #D1EAF2",
"MX c #C7F7FB",
"NX c #D9F9FD",
"BX c #E7FAFD",
"VX c #F0FEFE",
/* pixels */
"#X>X$X$X$X$X$X$X].'.$X).w.B Q i.9X9X8X9XyXyXpXyXyX@X%X9XyX9XyX9X X9X9X X9X9X*X%X*X9X2X9X$X$X*X>XOX} V j.9X9X$X$X$X$X$X$X[.[.OXOX",
",X4X5XuXuXuXuXuXuXuX#Xy.~ ~ n.tXzXyXlXzXzXcXxXxXzX0XsXzXzXzXzXpXXXyXjX2XiXzXiXrXiXyXiXiXiX2X7X7X5XD.i.C x.3XuXuX5XuX,X2X,X>X>X>X",
",X4X4X5X5XuXuXuXuXoXw.~ ) u.tXyXyXzXyXzXcXzXmXzXzX9XfXfXxXzXzXzX%X*XjXiX2XzXzXzXrXiXhXyXiXiX1X5X5XZ.r.r.o.h.)..X$X#X&X@X[.;X>X;X",
":X,X4X5X5X5XuX,Xc.w.~ ) | >XxXyXzXfXfXzXzXzXzXzXxXyXfXyXxXzXzXjX=X@XrXjX*XiXzXjXiX0XiXjXyXiX3X>X7X4Xa.V ( B N V R +.+.y.x.;X+X+X",
":X>X>X#X#X'.k.e.( ) ) ) G.xXfXzXlXyXcXcXzXzXzXcXzX0XfXfXxXxXxXzXfX&X=XjX2XrXjXjXrXyX2XiXjXiXhX1X1X2XoXi.B V } ^ ( e.f.'.;X;X].#X",
":X-Xk.f.w.( ~ ~ ) ) ` N.pXxXyXzXyXzXcXzXyXzXxXxXfXfXjXfXjXxXxXjXfX2X=XrXrX*XrXzXrXrXjX2XiXhXhX7X>X4XS.a.w.^ y.'.#X>X,X>X;X+X+X;X",
",X,X4X:XF.Z.N.n.' _ u.2XxXyXfXfXzXcXcXfX%XfXxXjXsXfXfX0XkXzXxXfXfXrXrXrXrX*XrXyXjX0XfXrX3XiXhX7X7X4X;Xw.( ( B w.c.$X>X>X>X#X,XuX",
"jXjXiXzXtXtXiXoX' ' S.9XxXfXfXfXcXvXcX0X%XxXzXdX0XjX%X9XfXjXxXfXfXrXrX0XrX3XfXiXjXjX*XyX2XiXhXiX7X7X6XG.( ^ ^ B V s.#XjXxXcXcXvX",
"xXxXxXcXcXcXsXp.' v.'.rXzXfXfXxXcXvXzX%X=XbXcXsX9XlX.X%XfXfXxXdXfXjXrX X|.sXjXdXfXkXjX&X3X3X3XiX7X7X<XL.a.! ! V y.w.o.z.%XbXbXbX",
"xXxXvXxXbXbXx.' ] a.D.zXfX0XfXcXcXcXfX.XdXxXfX%X0XlX~..XkXfXxX9X%XzXrX XY =XjXfX0XjXjX*X%X=X&X3XiX7X4Xx.Z.' ! ! s.sX@Xx.h.).0XlX",
"xXxXxXbXbX@X' ` 7.p.2XcXsX0XzXcXcXcX0X@XkXxX@X.X).gXj. XkX=XxX*X>.fXyX%XH ~.dXjX=XsXkX3X%XOX3X1X7X7X6X-Xy.p.~ ^ B |.bXbXbXbXvXvX",
"xXxXbXbXdXu.5.5.' Z.zXzXyXyXxXcXvXxX=X%XkXxXj. Xj.yX,.x.jXXXjX0XF |.jX0Xs.+.~.zX0Xx.kXfX=X3X&X*X&X4X6X4Xn.w._ ! ! o.sXMXMXMXvXvX",
"kXxXbXjXa.5.Z.0.7.'.cXzX0XfXcXcXcXzX0X=XsXsX...X..fX>.j.jXj.rXjXF ..fXdXz.v v 9XxX,. XxX=XhXhX2X@XOX1X6XL.( ( ~ ! B h.bXbXMXbXbX",
"xXkXkXk.u.oXk.' v.rXzXfX%XlXzXxXcXlXfX0XlX.XH ).H 9X>.=.yX+.@XjXH s @XdXc.c c j.bXx...fXdXrXhXhX4X@XK.:X:Xu.~ ! w.^ V %XbXbXbXbX",
"jXjXS.p.&X&X5.[ B.rX0XfX0XfXfXcXcXsXxX*XzXj.Y x.M %X>...rXX.j.zX@.s j.gX XM c Y sX&Xb ).kX3XhXhXiX6X;XD.oXB.~ ! a.c.! t.lXbXlXlX",
"hXc.k.rXlXB.' [ oX#XrXyXsXfXfXcXxXfXkX XjX@.U ,.c x.,.U *X+...jX,.b ^.dX|.N n B z.sXU R dXdXfX3X7X7X6XK.G.Z.( ! ( =XD.V  XbXbXxX",
"'.OXfXxXOX6.[ v.&Xx.jXlXzX3XrXcXzXfXdXz.fXY U @.b s.,.U =X+.M 9X^.U j.). X/ Q Q w.sXe.m ).dXhX3X3XhX6XF.;XG.4.~ ! k.gXk.y.fXzXzX",
"iXjXjXrXp.7.7.B.D.B.jXxXbX*X3XbXlXsX&Xj.sXM R s.d.'.).^.*X>.c x.@XU M y.K./ Q ) ) OXy.n O.sXaX3X1X7X6XF.L.S.p.! ! ^ @XkXy.OXkXkX",
"tXiXhXS.7.7.9.S.b.B.xXkXkX1X2XxXgXgX).s.%XV { } T } l.}.OXy.m U *XT B } Z.` 8.q.q.V.g.n M XX3XdX1X7X6XS.L.Z.a.( ~ ! r.gX=Xz.hXhX",
"7XhXG.6.0.v.q.B.9.S.xXxXxX1X&XbXgXlXh.h.OX/ ( | _ / / y.z.y.m U ).e./ ( q.V.P.aXaXU.Z.Q m t.3X3X1X7X;XS.S.B.u.4.~ ! ^ c.kXOX3X7X",
"7XL.5.n.G.q.b.b.8.H.fXzXbX1X<XbXlXsXy.f.D._ ' _ Q / / | d.} T T s.f._ / b.aXaXP.P.aXP.q.n N oX3X1X1XL.Z.B.g.4.4.~ ~ C ( &X7X&X7X",
"D.a.S.1XZ.0.b.0.9.I.&XfXxX1XI.bXlX=X} e.Z.` 7.7.` ` | u.f.{ M T } h./ / 0.C.P.P.J.U.P.q.Q c h.3X1X+XL.Z.a.p.4.` ~ ^ y.^ r.3X6X7X",
"G.1XiXoX0.7.9.9.9.I.oXjXkX7XI.kXlX@X( w.V.V.U.U.P.6._ i.i.{ T { { e.{ / ` v.C.V.V.b.0.~ n m e.1X+X<XS.Z.b.5.u.~ ~ ~ y.z.V z.7X6X",
"4X4X<Xn.v.0.9.9.9.F.G.jXxXrXI.kXlXK.B 6.P.aXP.P.<XV.' | u.| T { { | | | v.M.C.C.C.M.v.u.{ T +.;XD.+XG.Z.u.' 4.( ( ! ( oXD.w.D.:X",
":X;XB.n.Z.9.b.9.9.H.S.kXxXhXH.kXlXh.~ J.aXaXaXP.g.b.v.v.| } { { { | A.A.N.M.M.M.M.m.m.| { { R $Xh.L.K.B.3.` ` 3.a.^ Q e.1XoXh.F.",
"L.Z.Z.;Xn.q.Z.8.9.C.S.jXkXhXF.hXlXO.` U.aX3XP.J.C.M.m.N.A.| { { { d.}.wXwX}.].N.m.v.| } T T R ^.+.L.L.B.4.' ~ ( D.Z./ B k.:X-XF.",
"S.G.>XI.0.Z.B.9.8.b.C.jXkXkXI.1XkXo.` V.V.C.C.H.C.H.>XwXA.} } d.} { }.wXeXeXeXwX[.].A.A.} U U h. .L.L.B.` ` ` ! a.<XG.w.C D.-XG.",
"G.-X:XZ.b.-XB.9.9.9.C.3XhXkX<XI.zXs.^ ' M.C.C.C.H.eXpXeXd.| } ].}.d.[.wXwXwXwXwXeXqX}.{.}.R.d.s.H D.L.p.` ` ~ ^ w.I.:X-Xa.e.D.G.",
"G.-XoXp.Z.I.0.0.9.9.M.+XdXhX3XL.kXk.| i.m.M.M.].pXpXpXeXd.} d.}.}.{.}.8XqXqXqXqXqX}.}.{._.(.^.+.b k.F.v.) ~ B ( r.Z.;XP.oXk.g.z.",
"k.S.S.p.S.B.0.0.9.8.V.oX7XhX3XF.7Xc.| | f.A.[.eXpXpXpXeX[.d._.[.{._.}.}.}.qXqX}.}.}.{._.(./.l.-.Z k.F.4.~ B N C a.r.x.z.z.k.h.f.",
"O.O.r.3.y.6.0.3.7.8.M.L.3XiX3Xz.OXXXs.^.}.wXeXeXpXpXeXwXqX}.:.Q._.$._.}.{.{.{.{.{._._.(./.Q.j.-.A y.Z.( n c d N o.O.X.O.X...X. .",
"Y R R C 3.7.3.3.7.8.9.H.<XiX1Xz.s.2X[.}.}.wXeXeXeXwXwX8X}.[.$.;.(.d.(._.{.{._.[._._._.(.Q.E.d.-.F  .i.N s c p b N R  .H  . .N b ",
"C  .o.C 3.4.o.3.[ 8.0.B.-X7X1Xl.U $X_.}.}.qXqXqXqXqX}.}.}._./.:.(.(._._._.(._.(.(.(./.!.!.R.-.&.F v w.c y s u b N  ... .Y H N H ",
"O.O.r.3.4.r.p.6.[ 0.7.B.F.5XOXl.U ).'.}.}.}.}.}.}.}.}.}.`.[._.E.(.(.(.(.(.(.(.(./.!.!.R.R.2.-.E F f N s p s u A O.O.t.O.O.O.X.X.",
"O.O.r.3.p.r.p.6.' u.7.b.B.1Xc.h.../.).`.`.{.}.}.}.}.{.`._._.(.(.(./.!./././.!.!.!.!.E.R.d.1.;.P f p c r u y i A O.y.O.O.O.O.X.X.",
"O.O.o.r.a.r.r.' w.5.7.7.b.;Xx.s.-.!.!.(.`.`.`.`.`._._._.(.(./.Q.;.E *.E.Q.E.Q.Q.Q.E.E.R.Y.<.*.G p p c e u t i A t.O.t.O.X.o.X. .",
"O.o.O.r.r.t.4.4.p.3.6.3.0.G.l...-.W.!.Q.(._._._.(.(.(.(.(.!.Q.E c f c J T.R.Q.R.R.R.R.2.d.:.W D u s s w w 9 d  .O.+.O.O.X. .o.Y ",
"O.O.O.r.r.r.3.p.y.5.` O.' B.h.Y U T.!./.(.(.(.(.(.(.(.(.!.Q.;.f k f k f G R.R.R.R.T.2.1.:.:.W k u u e w 9 w a U O.O.+.X.X.X.o.Y ",
"|.oXK.OXXXx.k.#X$Xa.w.M b u.y.F F %.W.!./././././././.!.Q.R.G Z K E $.E G <.R.T.R.2.2.:.*.&.W k e e w 0 w 9 : =.@X XK.x.x.x.z.z.",
"BXBXBXBXVXnXBXVXBXl..XF c ( o.v v D T.W.!.!././.!.!.!.!.E.R.$.:.W L J P W ;.Y.T.2.2.:.:.&.W L g w w w w 9 : 7 nXNXNXNXNXNXMXMXMX",
"NXNXNXNXNXmXBXBXNX).nXE Z M N s p f W R.!.!.!.!.!.!.W.W.W.T.2.W &.:.Y.Y.*.P #.:.1.1.:.*.W W K e 9 8 8 8 5 # j bXMXMXMXMXMXMXvXlX",
"..@.@.@.>.>.>.>.>...@.E G v m s p a A R.R.R.R.!.W.W.W.R.R.Y.W <.d.:.I I *.<.*.*.:.;.*.%.W I S 0 9 8 4 , = # d @.>.@.@...........",
"t y p y p p p p p s s J #.d c s u a f W Y.R.R.R.R.T.T.Y.Y.W 2.2.I k a h K <.:.:.*.&.%.#.I L k 9 7 > ; * = = t p p p p y t t 6 t ",
"t q t t t y y y y y s G #.h p p e u a A Y.Y.R.R.T.T.T.Y.Y.Y.Y.<.P J J %.:.*.*.*.&.%.#.I L K a 5 > % * * * ; y p p y y t t 8 t 5 ",
"8 t 5 t t t t t q e p Z W Z u a e e a g W <.Y.Y.Y.Y.Y.Y.Y.Y.Y.;.<.:.:.*.*.*.*.%.%.#.W L K l 5 * * * * * % < y y t t t t 4 t < 5 ",
"5 5 8 t 6 8 t 4 q e r 2 D L u w e e u a Z Y.:.Y.Y.Y.Y.Y.;.Y.Y.Y.;.*.*.*.*.&.&.#.W L L D a , * * * * * * = 3 t t t t 5 t t < t < ",
"< 5 < 5 t < < 5 7 9 e $ 1 G l w u u w a a L *.:.Y.Y.Y.Y.Y.&.;.;.*.*.&.%.%.#.#.I I G h 3 * * * * * * * % # 8 8 t t 5 t < t < < < ",
"5 < < < < < t < 5 7 2 @ @ u Z u u u w w e D W &.*.*.W Y.*.&.*.;.&.%.%.#.I I I K j 7 - * * * * * % % % $ ; 8 8 8 8 5 6 < < < < < ",
"< < < < 3 3 5 3 t < > O O 2 3 q w w w 9 e a G W &.&.&.&.&.&.&.W W W W W L L A e - * * * * * * % % $ % ; 5 8 5 8 < 5 5 3 3 < < < ",
"< , < < < < 3 3 < < ; O O - * 2 9 q 7 7 9 w h L W W W W W W W W W I L L D i ; % * * * * % * % % % $ @ , 5 5 5 5 5 5 3 < < < , < ",
", > < < < < < < < 5 = o o $ $ 2 r r e 9 7 9 w k K I W W I I I I L L D h 1 % % % * % * % % % $ $ + . & 5 < 5 5 < < < < < , , > , ",
", > < < < 3 < < 5 < = o X o 1 d d s 4 7 7 7 9 9 g D K L K K K K D j 6 % $ $ $ % % % % % $ % $ o o . ; 5 5 5 3 5 5 < < < < < , < ",
", < , < < < < 5 5 < # O X : l D S j 8 5 7 9 5 9 9 w l D K D S j 0 & $ % $ % % % % % % % $ @ X X o @ , 5 5 < < 5 < < < < < < < , ",
"> < , , < < < < < < O . O i D D S j 5 < < 5 9 < 5 7 6 g j g 3 * @ % $ % $ % % % % % % % + . X + + # , < 5 < < < < < < < , > , , ",
"> > > , i 6 > , < < # . 1 x S S S h < 1 < < 1 6 3 1 5 1 : & @ $ $ $ % $ $ % $ % % % + o X + @ @ + # , < < < < , < < , < , > > > ",
"; > > 8 h 6 < > , , O # h S S S x h 1 6 1 1 1 1 3 : & X @ @ $ @ $ $ $ % % % % % $ + o + @ @ @ @ @ = , < , , , , > , , > , > > > ",
"; ; : 0 h 0 1 1 > ; o 6 x S S x z i 1 1 1 1 1 : % X X + @ @ @ $ $ # % $ % $ $ $ O @ @ @ @ @ O X # : > : , : , : > > > > > = ; = ",
"; ; ; 6 g 1 1 1 O O = j x x S x l 1 1 1 1 & # . . @ + + + + @ $ $ $ $ $ $ @ @ @ # # @ O @ O .   o O # O # @ $ @ & & = = = = = = ",
"= = & 1 i 1 1 1 O O i x x x x x i 1 : &     . O @ @ + X X @ $ @ @ @ @ @ + X o @ O O O O X                             o o o o # ",
"= = O 1 i 1 1 1 O 1 z x x x x h 1 O .     O O O + X . X @ $ @ @ @ @ @ o . O + + . . .     . X .             . . o o o O O O O O ",
"# # O > i 1 1 1 & g x z x l g 1 :           . .   . + + @ @ @ @ @ o .   X o X .       . O # # .         . . . . . . . . o   o o ",
"# # O , i 1 1 1 6 z x z h i 1 1 O             . X @ @ @ X @ @ X . .     . .       . # # O X X .     . . . . . . . . . .   o .   ",
"# O # , 0 1 1 1 j z h i 1 1 1 :   O 1 1 6 : . . X @ X X @ @ . .   .             O # O . X . . X .     . . . . . . . .   . . .   ",
"# # # < 0 1 1 g l i 1 1 1 1 1 6 i g h j h g 5 @ @ @ @ X o .                   . . . . . . . . . . . . .   . .       . .   . .   "
};
