/* XPM */
static char *result[] = {
/* columns rows colors chars-per-pixel */
"64 64 250 2 ",
"   c #000000",
".  c #090406",
"X  c #060509",
"o  c #0C050A",
"O  c #08090E",
"+  c #12050D",
"@  c #14090E",
"#  c #0B0C13",
"$  c #0D0F18",
"%  c #1A0914",
"&  c #0E131C",
"*  c #11121D",
"=  c #240E18",
"-  c #2A0C1D",
";  c #271518",
":  c #2D141D",
">  c #31181C",
",  c #161A28",
"<  c #1E1F33",
"1  c #340D22",
"2  c #2B152B",
"3  c #341424",
"4  c #381A24",
"5  c #16212D",
"6  c #1C2434",
"7  c #1B2937",
"8  c #133A3C",
"9  c #3D2427",
"0  c #21293D",
"q  c #302B36",
"w  c #3B3937",
"e  c #6D1719",
"r  c #45172C",
"t  c #4B112C",
"y  c #431C2B",
"u  c #581C39",
"i  c #432426",
"p  c #4C2B26",
"a  c #44242A",
"s  c #49262C",
"d  c #462929",
"f  c #4C2A2C",
"g  c #522F26",
"h  c #522E2C",
"j  c #48362F",
"k  c #553126",
"l  c #5B3727",
"z  c #55322C",
"x  c #5A352D",
"c  c #5C3B2C",
"v  c #482B32",
"b  c #562736",
"n  c #473636",
"m  c #573734",
"M  c #5C3B32",
"N  c #682725",
"B  c #742826",
"V  c #643C26",
"C  c #633B2D",
"Z  c #693F29",
"A  c #6F2F33",
"S  c #623D33",
"D  c #69383A",
"F  c #733B37",
"G  c #37433D",
"H  c #48463A",
"J  c #564938",
"K  c #54503D",
"L  c #6C4327",
"P  c #64422D",
"I  c #6C442B",
"U  c #6F4A2C",
"Y  c #74492A",
"T  c #744C2A",
"R  c #79542E",
"E  c #7C542D",
"W  c #6A4332",
"Q  c #694636",
"!  c #734C32",
"~  c #754836",
"^  c #754539",
"/  c #7A4A3C",
"(  c #66533C",
")  c #7B5334",
"_  c #785638",
"`  c #79633E",
"'  c #252D43",
"]  c #302F4E",
"[  c #253549",
"{  c #293B52",
"}  c #2E3F59",
"|  c #3A345B",
" . c #4E3644",
".. c #732F4F",
"X. c #683644",
"o. c #663A42",
"O. c #6B3C44",
"+. c #763749",
"@. c #194448",
"#. c #1A5758",
"$. c #344843",
"%. c #2B544C",
"&. c #375949",
"*. c #2A4559",
"=. c #364E54",
"-. c #245A55",
";. c #19675B",
":. c #1C6B5C",
">. c #0C725F",
",. c #11725E",
"<. c #1D725F",
"1. c #226255",
"2. c #266858",
"3. c #386451",
"4. c #28765E",
"5. c #38775B",
"6. c #2D4D63",
"7. c #344865",
"8. c #295564",
"9. c #2D5C6C",
"0. c #31556B",
"q. c #1A6C66",
"w. c #1E6D6B",
"e. c #0E7C67",
"r. c #0E7E68",
"t. c #157563",
"y. c #197562",
"u. c #127B66",
"i. c #1C7B64",
"p. c #167669",
"a. c #1A726A",
"s. c #107D68",
"d. c #256466",
"f. c #26656C",
"g. c #2A626E",
"h. c #236A6D",
"j. c #267763",
"k. c #357F61",
"l. c #445847",
"z. c #565843",
"x. c #6C4744",
"c. c #774945",
"v. c #71564E",
"b. c #795649",
"n. c #50674E",
"m. c #467758",
"M. c #567B56",
"N. c #666745",
"B. c #76754A",
"V. c #6D6D52",
"C. c #7E7160",
"Z. c #863335",
"A. c #83572D",
"S. c #914D38",
"D. c #855937",
"F. c #835C35",
"G. c #8C6534",
"H. c #886539",
"J. c #8C643B",
"K. c #926B35",
"L. c #946A38",
"P. c #9A743C",
"I. c #A6793D",
"U. c #813D52",
"Y. c #824D4A",
"T. c #855646",
"R. c #83534B",
"E. c #8A564A",
"W. c #8B594B",
"Q. c #915D4D",
"!. c #894654",
"~. c #895A55",
"^. c #8A634A",
"/. c #94674B",
"(. c #887645",
"). c #997744",
"_. c #876556",
"`. c #996854",
"'. c #927557",
"]. c #A37D42",
"[. c #AB7051",
"{. c #A87759",
"}. c #9F5A64",
"|. c #94746A",
" X c #AE7569",
".X c #C07853",
"XX c #1A816A",
"oX c #268267",
"OX c #388564",
"+X c #2C8977",
"@X c #54865C",
"#X c #728D5A",
"$X c #438765",
"%X c #5B9167",
"&X c #75946B",
"*X c #AE893F",
"=X c #9A894B",
"-X c #8C8F55",
";X c #AA8444",
":X c #B48B44",
">X c #B99448",
",X c #AD8B59",
"<X c #B28659",
"1X c #ACA65C",
"2X c #928A70",
"3X c #AC8D6E",
"4X c #B98864",
"5X c #B7A17A",
"6X c #C49B49",
"7X c #C28D5A",
"8X c #C7A755",
"9X c #CFAB51",
"0X c #DAB656",
"qX c #E2BD58",
"wX c #C79A68",
"eX c #D69966",
"rX c #CA8C71",
"tX c #D8987D",
"yX c #CBA869",
"uX c #D4A46D",
"iX c #D8B966",
"pX c #D6A972",
"aX c #DAA975",
"sX c #C9B077",
"dX c #DBB275",
"fX c #E2AB78",
"gX c #E5B679",
"hX c #EBBC7C",
"jX c #E6C259",
"kX c #D9C07F",
"lX c #E6C96D",
"zX c #EEC17E",
"xX c #EAC979",
"cX c #F2C47E",
"vX c #AD9287",
"bX c #BBAA8F",
"nX c #CFB188",
"mX c #D3AB91",
"MX c #EBB481",
"NX c #E9B681",
"BX c #EDC78B",
"VX c #F5C680",
"CX c #F6C982",
"ZX c #F9CA82",
"AX c #F4CB8A",
"SX c #EFCF98",
"DX c #F3CE93",
"FX c #F6D297",
"GX c #D7C9B4",
"HX c #E9D3B0",
/* pixels */
",.,.t.,.>.>.>.>.>.>.>.>.>.>.>.>.>.>.>.>.>.>.>.>.>.>.>.>.;.N.5.>.m.z.>.>.>.>.,.,.>.>.>.>.>.>.>.>.>.>.>.>.>.>.>.>.>.>.>.>.>.>.>.>.",
"s.s.XXr.e.XXXXXXe.XXe.e.XXXXe.XXXXXXXXXX>.XXXXXXe.XXe.XXe.5.%Xu.m.<.XXXXr.r.s.s.e.XXXXXXe.e.e.XX>.XXXXXXXXe.>.XXXXXXXXXX>.XX>.XX",
"e.e.e.e.XXe.e.XXe.XXe.e.XXe.e.XX>.XXXXXXXXXXe.>.e.XXe.XXe.p.M.k.4.XXe.t.t.t.r.s.e.e.e.e.e.XXe.e.XX>.>.XXXXe.XXe.>.XX>.XXXXXXXXXX",
"XXXXe.XXe.XXe.e.XXe.XXe.e.e.XXe.XXe.XXXXXXXX>.,.XXe.e.e.p.e.k.@X2.&.z.(.=XM.i.r.XXe.XXXXXXe.e.XXXXXXXXXXe.XXe.e.XXXXXXXXXX>.XXXX",
"e.e.XXe.e.XXXXe.XXr.XX%.>.e.e.e.XX>.XX>.XXXXG G 1.M.N.H H J K K n A A.L.6XqX1X-X$XXXe.e.XXe.e.e.XXe.e.e.XXe.XXe.e.XXXXe.XXe.XXe.",
"XXe.e.e.e.e.e.e.e.r.e.$.w ,.e.XXXXXXXXXXXXXX;.J R L g l L V z s f x Y ~ A.;XlXxX0X%XXXe.e.e.XXe.e.XXXXe.XXe.XXe.XXe.e.e.e.e.e.XX",
"e.e.XXXXXXXXe.XXXXe.r.-.i H n.,.XXXXXXXXe.XXOXG.P p P T V k p f h m A.I.6XP.K.,X0X1X@Xe.e.XXXXXXe.XXe.XXXXXXe.e.e.XXe.XXXXe.XXe.",
"e.XXe.e.e.e.XXe.e.e.s.,.v j P.>X-X#X@XOXoXoX=XA.U ` E L L P f s h ! F.F.*XjX>X_ ;X>X:XOXe.e.e.e.XXe.e.e.e.e.e.XXe.e.XXe.e.XXe.e.",
"XXe.XXe.XXe.e.r.XXXXXXe.G 9 k K.6X0X0XiX8X1X*XI.K.T Y A.) F f v x ) >X:XK.>X0X6XU ;XI.).4.e.XXXXXXs.s.s.s.r.r.r.XXe.XXe.XXXXe.XX",
"e.XXe.XXe.e.XXr.e.e.XXXX@.9 d p L K.:X>X6X*XP.G.Y E F.K.T I s s b ].>XjX6XI.9X9X>XH.I.H.B.u.e.e.e.s.s.s.s.r.u.e.XXe.e.XXe.e.XXe.",
"e.XXe.e.XXe.e.r.XXe.e.,.w a d p k k l U Y Y L L Y A.G.G.A.C v s s D.9X8XxX:X:XjX6X9X;X) G.m.r.r.r.r.s.s.r.r.4.4.XXe.e.e.e.XX>.XX",
"XXe.e.XXe.XXXXs.e.XXXX>.j i i d k V V l V V L L A.A.L.A.A.z 4 u r s 8X>XpX0XI.yXyX6XjX;X! b.p.r.r.r.s.r.u.m.K y.e.XXXXe.XXe.XXXX",
"e.XXe.e.s.s.s.s.s.s.s.s.&.p i a p k l V L L Y T G.G.G.A.) y + t o - /.8X).6X:XP.iX>X9XqX4XJ.n.r.r.XXe.XX#X! &.XXe.e.XXe.e.XXe.e.",
"e.e.XXe.s.s.s.r.s.s.s.r.y.H p i d k V V L L T A.G.K.A.A.I :       - D >X/ :X6XP.:X6X:XI.iXBX].#X$XOX%X=XT J <.s.XXXXe.e.e.e.e.XX",
"e.e.e.XXs.r.r.r.XXe.s.s.s.y.$.p i i p k l Y T K.A.K.Y A.C =       + 3 J.) Q >XI.G.6X:XH.( 6XjXqX0X8X;XP k &.XXXXe.XXXXe.e.XXXXe.",
";.e.e.e.s.s.s.r.r.r.s.s.s.r.t.&.d g P k p T E G.E A.Y Y h @         X h ) a L.I.D.I.:XI.z c ].0X9X` f h G >.e.e.e.e.e.XXe.e.XXe.",
";.;.p.r.r.r.r.r.XXe.XXe.#.-.G w g R G.V P E E E I T I ~ a - ..-     X y W i h P.A.~ ].P.).S f ~ *X9X].( 2.r.r.r.r.r.r.r.r.s.s.r.",
";.#.a.e.r.r.r.r.e.XXe.XX;.9 9 i k P.T j E R E T l C Y Z 4 - u X.%     1 x b r W / C )._ ].:X_ f h ) I.6X1X#XOXoXs.r.r.r.s.s.XXs.",
">.8 w.p.s.r.s.s.e.e.e.e.XX,.G w ` K.P P K.L E L g x I C :     u b       + 1 1 y I h _ _ ) H.:X).m s h W D.].).B.j.r.s.r.e.e.e.r.",
"q.8 #.p.s.s.s.s.XXe.XXXX>.XXXX4.K.R p R E L U P f z Z C >     b b     % % t y 4 i b Q D.c ^.S ).:X_ h s h K -.2.t.r.s.XXXXXXr.r.",
"p.@.@.a.p.r.r.s.e.e.XXe.e.XXj.B.E P k G.L L L k f k C x i   1 U.-     u r b s o @ s z D.x ^.D.v Q ).)._ M m l.&.;.e.XXe.e.e.e.XX",
"p.#.7 w.p.r.r.s.XXe.e.XXe.j.#XT ` p P E V L P g p f x x l   - !.y   . u f x.v.*   4 v _ x C :XM s s M Q C l.1.q.e.XXe.e.XXe.XXe.",
"s.f.5 8.p.s.s.s.XXe.XXXXoX-X) l U 9 P P L l p p p s h z ) = b !.:   + y 9 C.'.m   % y W m h J.).s v v d w %.s.r.XXe.XXe.e.XXe.e.",
"s.f.5 @.a.s.s.s.XXXXXXOX=X_ s J L 9 P l V g p p s s s h D.^ ..3     > 4 = |.bXv.y o - z m h z ].Q v { &.-.s.s.s.XXe.e.XXe.e.e.XX",
"s.h.5 7 w.s.r.p.t.i.@X(.W d i P P 9 l k V p i 4 p s s s ! T.r - % : m : t c.HX3XE.+ o f h h v Q (.f H $.;.e.e.XXe.XXXXe.XXXXe.XX",
"p.g.5 5 f.s.s.t.$.H S f a i a W P P l k V i 9 : p 4 s a m ! . b b s ( 9 t r bXnX X@ % b M ~ h f _ M.,.,.XXXXe.e.e.e.e.e.e.e.e.e.",
"p.9.$ , f.p.s.s.-.v a s i i i P E H.g g x i 9 = i 3 a d d J.p c.W.M |.n : ( nXAXfXa c.!.S >XD s z B.oXe.e.e.XXe.XXe.XXe.e.e.XXe.",
"w.*.X O 8.p.s.s.XX,.-.%.$.j G &.=XH.d g k y y 1 > ; 4 s d M P.`.4X<XbX5XwXVXCXZXMXQ.tX{.M >Xc.x.h x B.XXe.XXe.XXe.XXe.XXXXXXXXe.",
"9.0   # -.p.s.r.e.e.e.XXe.>.XXoX=XU i p p y 4 3 4 4 4 p a s Q ,XpXdXzXZXcXcXZXcXhXfXZXwXS >Xb._.m s M (.$Xi.e.XXe.XXe.e.e.e.XXe.",
"' X   7 f.p.s.s.e.XXXXXXXXXXXX#XK.P i p p 4 - 4 b i > 9 m d v P ).yXzXcXcXZXcXZXZXcXZXpXS :Xc.`.^ n w m ( n.<.XXXXe.XXXXXXe.e.XX",
"    # 6.a.e.s.s.XXe.e.e.XXe.oX=XT l i p i 4 = n _.n + = v.m m b.^.4XcXZXZXcXZXcXcXZXcXgXQ ;X^.{._ n.t.;.>.>.e.XXe.e.e.e.XXe.XXe.",
"    , g.p.r.r.s.e.XXXXe.e.XX-XE L p 9 i i : . Q '.C.1 t v.2X/ pXzXxXcXZXcXZXcXZXZXcXZXhXb.;X,X/.F.).j.s.XXXXe.e.XXe.XXe.e.XXe.e.",
"    7 f.p.r.r.r.r.r.r.XXi.@XG.L p a i a i 3 + X.3XbX4 t n '.W.dXgXdXcXcXZXcXZXcXcXZXcXCXb.;XwXJ Z :X#Xs.r.r.XXXXe.XXe.XXe.XXe.e.",
"    6 f.s.r.r.r.s.r.r.i.M.G.L g a a 9 a i :   4 3XGXj v.,X/.b.<X/.Q.aXZXcXZXcXZXZXcXZXZX_.).^.m f D.8X$Xe.r.e.e.e.e.XXe.XXe.e.e.",
"    , 9.p.s.XXr.s.:.4.M.H.Y l s i a a d a 3   1 v.mX'.yXdX<XD ^ Y.`.gXZXCXzXzXZXcXZXCXAX_.L.H.3.$.f F.,X5.r.e.XXXXXXe.e.e.e.XXe.",
"&   O 6.a.s.s.s.s.1.J L V k p i i g V k 9 9 @ - X.J ).dXdX{.^ D / 7XDXHXvX3XcXcXZXcXcXCXb.K.(.4.XX:.%.K n.>.XXe.e.e.XXe.r.e.e.p.",
"6     { h.p.s.r.XXr.;.G w 9 v j J K c p j a > = u D T.wXuXW.^ ^ R.nXGXv.x.sXCXCXZXcXZXAXv.H.P.4.XXe.e.e.e.e.XXe.s.r.s.s.e.s.a.f.",
"*.#   6 0.w.p.s.r.r.XXr.t.y.,.<.y.1.G c P.z a ; 1 F Q ^ c.^ ~ ^ ~.vX..x.mXBXzXCXcXcXcXAXv.E =XXXe.XXXXe.e.e.e.XXs.s.s.s.r.s.h.6.",
"9.'     6 8.w.u.e.e.e.e.r.r.r.r.XX<.j H.) d M s s F ^ ^ ^ ^ ^ ^ |.Z.~.GXAXcXeXeXcXcXZXnXJ D.-X,.e.e.XXXXe.XXe.e.s.s.s.s.s.a.0., ",
"d.} <     5 9.a.r.e.XXr.s.s.s.r.e.$.! E 9 Q ^ f m / ^ ^ ^ ^ ^ _. X XHXDXhXcXcX.X[.fXeX3Xh D.#Xe.XXe.e.e.e.e.XXe.r.s.s.p.w.g.'   ",
"a.*.q o   X ' f.p.e.s.s.s.s.e.r.;.J U d 9 n._.k h x./ ~ ^ ^ ^ b.|.3XBXNXfX7XhXgXS.S..Xb.v ) @XXXs.s.r.s.s.s.s.s.s.p.a.w.9.[ X   ",
"a.*.X       X { h.p.s.s.s.s.e.t.w k w #.w 4.2XM p D b.~ ^ ^ ^ ^ c.Y.4X XhXeXeXhXeXe /.b.f ( @XXXs.s.s.s.r.s.s.s.p.a.g.6., X     ",
"a.#.          # 8.w.p.s.r.s.s.$.d G ;.e.-.>.$X( p D T./ ^ ^ / ^ ~ F D 4XZXfX[.eX[.S.A c.n n.$Xe.r.s.s.s.s.s.s.a.h.9.{ $         ",
"p.8.$           6 9.p.s.s.s.1.$.1.u.XXe.XXXXXX( s <XwXT./ ^ ~ ^ ^ A / pXZXZXS..X[.F b.x.n 3.$Xr.s.s.s.s.s.p.a.g.*.,           X ",
"p.h.0           X *.h.s.XXe.>.e.XX>.XXXXe.e.XXz.p -XC.z / / ^ ^ F B D.aXcXZXL.S.7XO.Y.x.G j.OXr.s.s.s.s.p.h.9.' O             0 ",
"s.a.6.#           , 9.w.e.XXXXXXXXXXXX>.e.XXXXN.g 2.%.d Q Y./ B A B / wXZXZX[.N c.O.!.n.$.i.i.s.s.s.s.a.h.6.,               $ 6.",
"s.a.9.,             0 f.e.e.XXe.XXXXXXXXXXXXXXM.k 1.4.G H M ^ B A B ~ /.fXhX`.X.O.+.E.V.1.y.u.u.p.a.w.g.*.*                 6 f.",
"s.p.8.0             X [ 9.q.>.e.XXe.XXXX>.XX>.$Xc 1.u.G &.z a N B e F ~ W.R.x.x.b.c.W.&Xi.q.a.h.h.g.0.{ $                 5 8.a.",
"r.u.h.'               X [ 9.h.a.p.s.s.s.s.s.r.OXJ ;.e.&.-.H p a D D o.o.o.o.O.T.Y.R.`.2Xh.h.9.6.{ 0 *                   7 9.h.p.",
"s.s.h.@.X               X 7 6.f.a.p.s.s.s.s.s.i.z.;.r.:.3.3.h b X.O.O.o.o.O.Y.W.Y._.{.2X8.[ , #                     X ' 9.a.p.s.",
"s.s.p.-.&                   # { 9.h.a.p.p.u.s.s.3.=.p.p.2.j. .4 X.Y.c.c.c.Y.W.W.T.{.4X_.O                         X ' 9.a.p.r.s.",
"s.s.s.h.8.6 X                 X 0 *.9.h.w.a.a.w.g.=.h.h.g.9.] o X.Y.W.E.E.E.W.E.W.<XrXR.                        X [ g.a.s.s.s.s.",
"s.s.s.p.h.g.{ *                   O , { 6.0.9.0.*.' ' { 7.{ # . +.!.W.W.E.E.W.`.`.eXrX~.                        0 9.w.u.s.s.s.s.",
"s.s.s.s.p.a.g.} X                     X O , , * o     X #     o c.!./.W.E.E.{.{.{.pXaXb.                        } h.u.s.s.s.s.s.",
"s.s.s.r.s.s.a.g.7                                             + ~.`.<X`.R./.pX{.wXdXMX`..                     X 8.a.u.r.r.r.s.s.",
"s.s.s.s.r.s.p.a.6.$                                           : }.{. XdX{.uXzX{.gXgXNXtXc..                   , 9.p.s.s.r.r.r.+X",
"s.s.r.s.s.s.u.u.h.[ X                                     @ b !. XeX'.VXVXDXgX4XVXhXVXNXtXc..                 ' w.e.s.s.s.r.XX+X",
"s.s.s.s.s.s.s.s.p.f.{ 5 #                             X 3 ..!.!.<XNX{.NXFXFXpXuXVXVXVXNXMXtXo.X             , 9.a.s.r.s.s.r.+X+X",
"r.s.s.s.s.s.s.s.u.a.h.g.6.{ 7 $                     X r }.4X{.W.<XDX4XaXFXCXpXhXZXCXVXVXNXMXrXv           * | g.p.s.u.s.s.r.s.+X",
"s.s.s.s.r.s.s.r.s.s.p.a.a.g.g.6.7 * X             . u }.MXMXzXuXuXSXgXaXDXcXgXAXAXVXVXcXVXNXMX X;         2 | 9.a.e.r.e.s.r.r.XX",
"s.r.s.s.XXe.r.r.s.s.s.r.p.p.a.w.g.0.] X           b !. XhXzXhXhXVXFXAXzXCXcXzXDXBXcXcXcXcXcXMXMX~.o         X q 2X%X+XXXr.r.s.r.",
"s.s.s.s.s.s.r.r.s.r.s.r.s.s.s.p.p.h.7.#         - +.!.~.`.[.`.`.wXBXAXCXCXVXAXSXDXVXcXcXcXMXhXhXrX4           ; 3XkXkX&XoXr.s.s.",
"r.r.s.s.r.s.r.e.s.s.e.e.r.r.s.s.XXa.7.O       . X.!.E.E.T.E.Q.pXVXBXBXVXVXVXDXDXVXVXcXZXZXVXZXMXmXO.          @  XMXcXcXbX%Xs.s.",
"r.e.XXr.r.r.r.XXs.r.XXr.r.e.XXs.$X3X}.@       % ..!.E.E.W.W.`.aXVXcXAXAXVXAXSXCXZXcXZXcXVXVXMXfXtXm             c.MXcXcXcXBX&Xs."
};
