/* XPM */
static char *result[] = {
/* columns rows colors chars-per-pixel */
"64 64 255 2 ",
"   c #0D0A07",
".  c #110D07",
"X  c #120D0A",
"o  c #0F130B",
"O  c #16110C",
"+  c #1A130E",
"@  c #19180C",
"#  c #161210",
"$  c #1B1512",
"%  c #1E1915",
"&  c #261910",
"*  c #231B15",
"=  c #241C1A",
"-  c #291D18",
";  c #1E2B15",
":  c #2B221D",
">  c #232D18",
",  c #362719",
"<  c #31361A",
"1  c #2E2423",
"2  c #2F2A26",
"3  c #312624",
"4  c #372A26",
"5  c #352B29",
"6  c #3A322C",
"7  c #2B3233",
"8  c #383636",
"9  c #441E14",
"0  c #472819",
"q  c #57281A",
"w  c #4F361A",
"e  c #642A18",
"r  c #69331A",
"t  c #75391B",
"y  c #462723",
"u  c #542C2B",
"i  c #463629",
"p  c #573828",
"a  c #473937",
"s  c #583C36",
"d  c #693727",
"f  c #6C342C",
"g  c #743B2B",
"h  c #783B29",
"j  c #683A33",
"k  c #3A413B",
"l  c #57431E",
"z  c #6D461D",
"x  c #4D4425",
"c  c #594726",
"v  c #4A433A",
"b  c #574639",
"n  c #6E4F2B",
"m  c #794729",
"M  c #67453A",
"N  c #784536",
"B  c #785538",
"V  c #573D44",
"C  c #584946",
"Z  c #544E4A",
"A  c #664C46",
"S  c #744C44",
"D  c #675449",
"F  c #775748",
"G  c #695854",
"H  c #755C57",
"J  c #79634C",
"K  c #716458",
"L  c #74625D",
"P  c #7A6658",
"I  c #655468",
"U  c #7B6663",
"Y  c #7A6966",
"T  c #79716E",
"R  c #89391B",
"E  c #8C3B2B",
"W  c #A43C39",
"Q  c #89481C",
"!  c #B4471B",
"~  c #864729",
"^  c #985527",
"/  c #905229",
"(  c #834433",
")  c #884A36",
"_  c #8C4C3A",
"`  c #924C39",
"'  c #8A5437",
"]  c #97553B",
"[  c #A65929",
"{  c #AF5531",
"}  c #8D6831",
"|  c #996439",
" . c #B46B2E",
".. c #A76A39",
"X. c #A67338",
"o. c #CC7132",
"O. c #833E43",
"+. c #8E5348",
"@. c #885748",
"#. c #985945",
"$. c #875C52",
"%. c #AC4B47",
"&. c #A35C47",
"*. c #886645",
"=. c #9A6548",
"-. c #967747",
";. c #886658",
":. c #986856",
">. c #8B725C",
",. c #96735A",
"<. c #A76649",
"1. c #A5634C",
"2. c #AA7648",
"3. c #B67748",
"4. c #A96B53",
"5. c #B26B50",
"6. c #A97459",
"7. c #B6765A",
"8. c #834C60",
"9. c #886C65",
"0. c #826D6A",
"q. c #956E63",
"w. c #887368",
"e. c #967768",
"r. c #8A7673",
"t. c #897876",
"y. c #937C77",
"u. c #A57865",
"i. c #B57964",
"p. c #BC7D62",
"a. c #AA7E78",
"s. c #CE6749",
"d. c #CA794C",
"f. c #B38638",
"g. c #BAA437",
"h. c #C78838",
"j. c #D78A39",
"k. c #CD9133",
"l. c #D89639",
"z. c #E59638",
"x. c #D3A639",
"c. c #E7B03A",
"v. c #EECA3E",
"b. c #968547",
"n. c #B78848",
"m. c #BC944A",
"M. c #AF8C51",
"N. c #B98459",
"B. c #B6A850",
"V. c #9A846D",
"C. c #98847A",
"Z. c #A68669",
"A. c #B98568",
"S. c #A78676",
"D. c #B88C79",
"F. c #B19676",
"G. c #B6A46B",
"H. c #C88649",
"J. c #D3924B",
"K. c #C78B55",
"L. c #C79657",
"P. c #E49849",
"I. c #C8A648",
"U. c #D4AC50",
"Y. c #D8B858",
"T. c #E4A746",
"R. c #E9B34F",
"E. c #C4866A",
"W. c #C6876A",
"Q. c #C38A6D",
"!. c #CC9468",
"~. c #C68E73",
"^. c #C99578",
"/. c #D29877",
"(. c #D49B7C",
"). c #E69D6C",
"_. c #D3AE6E",
"`. c #E5B46E",
"'. c #D5C450",
"]. c #EFCF50",
"[. c #E8C858",
"{. c #F4E856",
"}. c #DAC76F",
"|. c #E8C965",
" X c #EED472",
".X c #F5EB71",
"XX c #9C7788",
"oX c #9A8784",
"OX c #9A928F",
"+X c #A48C89",
"@X c #AF948E",
"#X c #B79586",
"$X c #A89895",
"%X c #B4A399",
"&X c #A888A7",
"*X c #B9AAA8",
"=X c #B9ACAB",
"-X c #C79B86",
";X c #D69E81",
":X c #C79699",
">X c #DBA484",
",X c #D9A789",
"<X c #CCAA90",
"1X c #D7AC95",
"2X c #D9B497",
"3X c #E1A986",
"4X c #E3AC8B",
"5X c #E6B28C",
"6X c #E8AF95",
"7X c #E4B392",
"8X c #EAB592",
"9X c #EDBA96",
"0X c #E4B99A",
"qX c #EDBD9B",
"wX c #F0BB97",
"eX c #F2BE9A",
"rX c #D0B6AB",
"tX c #C7B9B7",
"yX c #E8BDA1",
"uX c #D9C78C",
"iX c #EED28C",
"pX c #EDC39B",
"aX c #F4C29D",
"sX c #F5C99C",
"dX c #F6EF88",
"fX c #F3E697",
"gX c #F9F798",
"hX c #CDC0BD",
"jX c #D7C3B9",
"kX c #EBC5A6",
"lX c #F3C5A3",
"zX c #F4CBA9",
"xX c #EED6AD",
"cX c #EACCB8",
"vX c #F5D5B7",
"bX c #F9F7A9",
"nX c #F2E6B2",
"mX c #F8F7B7",
"MX c #D8B6CE",
"NX c #CEC4C2",
"BX c #D5CAC7",
"VX c #DBD1CE",
"CX c #DBD5D3",
"ZX c #DDD8D7",
"AX c #EDD9C8",
"SX c #E5DAD8",
"DX c #F8F3CE",
"FX c #EBE2DB",
"GX c #F3E9D7",
"HX c #EEDCF4",
"JX c #ECE6E4",
"KX c #F3ECE9",
"LX c #F9F6EB",
"PX c #FAF4F3",
"IX c #FAF9F6",
/* pixels */
"7 b Z k Z Z I K >.5.d.pXnXAXbX`.p.%.5.%.%.s.s.P.].|.dXmXmXbXDXLXIXIXIXIXIXIXIXGX6X3Xd.7.<.*.B J ,.S.S.V.w.P Y P P P P P K K K K ",
"7 F Z Z D G K :.L.`._.!.Z.~.<XiXiX`.`.d.W %.d.R.].].{.fXdX.XgXmXDXIXIXIXIXIXIXIXLXcX).s.-.#.B *.,.F.#XS.e.P P J J K K K K G D Z ",
"8 } Z Z C G =.K. X XU.2.4.N.L.Y. XdXdXP.s.P.iX).].{.iXsXDXDXbXgXbXDXLXLXIXIXIXIXLXGX/.n.2.| =.| 6.^.F.S.,.P >.M.J P P K J Z Z K ",
"k J b Z D @.H.R.}.[.m.6.n.N.L.m.L.Y.[.[. XiXiX5.H.T.).R.nXLXLXDXmXgXmXmXmXDXIXLX0X_.K.7.2.<.<.2.2.U.D.Z.>.>.2.L.>.P P C.K v Z D ",
"8 *.D C *.J.P.[.Y.|...2.Y.[.M.2.n.Y.Y.B.G.*.N E W { s.yXFXeXAXGXDXbX.XdXxXfXDXmXI.l.J.d.7.3.3...2.U.!.S.u.u.6.M.b.P V.V.K v Z D ",
"7 D B A M.z.[.}.I.Y.X.I.|.[.n.n.U.U.m.*.M M s u E %.p.SXHXeXzXAX`.). XbXvX.XgXdXU.} k.U.H.3.o.5.7.).!.~.D.Z.,.Z.w.T V.P J B D D ",
"8 v A G n.j.R.m.L.U.L.I.U.Y.H.n.U._.I.b.Z P H M O.O.O.XXSX6X,X3Xz.J.K.rXrX^.bX.X.XB.f. XP.J.H.d.!.iXiX,X:Xa.u.Z.V.V.V.J } } n Z ",
"k Z D H ..j.k.n...m.X.} X.X.X.| m.n.m.m.M C 0.0.H u V I XXs.%.{ d.(.,XD.,.-.hXiX'.b.J .XR.l.x.d.pXbXmXcX:X:XA.Z.Z.>.P B b.b.D D ",
"k v B @. .z.f.[ / X.} 2.<.| =.6.4.3.f.I.A.S.G +Xr.I V V H %.E W J.-X#Xq.r.$.:.:.q.B J  XT.z.c.T.iXgXmXxX(.:X^.A.Z.,.J F | | D D ",
"Z v F =.J.{.f.^ ^ ' B N.;X~.~.p.(./.N.n.N.u.9.OX%XXXV a O.O.j h s.$.;.8.r.$.#.` @.$.-.uX|.R.c.z.fXbXbXGX,X(.:X/.L.,.-.F *.*.M K ",
"k v F 2.]..X[ ^ Q ~ #.~.A.7.>X5X8XeXeX/.7.#.e.G tX$XXXa u u u f #.j M 8.y.&.&.#.:.' e.CXFXxX[.]. XbXfXGX2X3X1X:XG.e.,.J J J K C.",
"7 v *.3..X|./ Q t t =.,XQ.,XeX,X;X8XeX4X/.7.=.a $XNX&XU u u y q ~ q y G r.4.;XrX<Xi.D.SXSXFXAX X{.{.dXDXGXxX6XrX<X<X<XV.J J J %X",
"8 x *.d..X_.Q R t r #.3X7XeX(.&.+.u.6XeX7X~.:.C I BX*X$Xu 1 1 y r y 3 A y.i.cXcXyX4X7XVXVX%XjXuXdX{.{.mXLXIXGXtXMXSXcX#XP K J V.",
"7 v F 3.iXY.Q t e d #.~.(.5X2.j Z u.eXaXeX3X-XZ C tXBXtXG 1 1 4 e 4 5 A e.i.cXyXeXeXqXkXSX@Xy.S.2X}.dXgXbXDXDXMXHXLXrX#XC.P P T ",
"4 s S &.`._.Q t e e ) 4.W.<.m U C.7XaXaXaX3X6.H C +XCXNXOX1 3 4 y 4 1 C XX@XJXcX9XeXcXcXSX=X=XjXSXSXGXmXgXgXmXAXKXPX*XS.C.T P V.",
"w n S { J.U.^ R r e ( ] 4.&.N u.8XaXeX5XeX,XS H V +XVXVX%X4 3 3 y 4 * C +X%XKXFXyXSXSXVXFXKXPXPXIXKXKXPXGXmXgXmXcXhX&XZ.-.b.P >.",
"p } S ` o.U.[ z r e d ~ N #.p.4.4XaXeX(.!.7X,.H C oXVXCX%Xu - & 3 3 # C +X+XtXrX<XBXMXPXPXPXPXPXIXSXhXPXLXKXmXgX_.XXXXA.2.>.w.>.",
"w / @.+.d.`. .Q e m h r V M ~.qX7X3XeX3XL.5XD.9.a +XBXZX%Xs $ $ : *   a oXr.y.+X+X+XtXPXPXPXPXPXPXJX+XtXLXIXKXfX`.J.6.7.Z.S.V.w.",
"i ^ ;.+.o.}.f.Q r N @.D Z j #.8XlX^.!.U.Y.7X-X0.8 &XVXSX:XK X X &     a y.r.Y oX+X+X@XFXJXPXPXPXPXJX$X$XFXBXtXxX{.P.3.<XGXjXV.>.",
"p X.:.&.o.T.x.Q r j ;.;.F _ _ p.>X..f.I.).qX<XY 3 %XZXSXBXoX% X $ + X 8 t.y.oXoXoXoX+XtXhXhXPXPXPXKXFXSXJXFXhXuX.XP.!.zXAX#X,.>.",
"i ] q.<.d.z.R.f.m p j @.$.:.] ) ..f.U.L.(.aX#XG 1 =XJXSXhXt.8 = 1 1 $ 3 0.y.y.XX0.t.+X@X@X@XCXPXPXIXPXPXPXPXPXcX.XR.K.(.Z.:.>.P ",
"i @.$.o.P.P.'.x.B b 4 y $.u.1.' ~ ^ | E.pX9XS.Z 5 =XCXVXOXoXT = # % 1 - G r.U U H y.oX+X+Xy.tXPXLXJXJXLXKXSXSXKXnX[.K.6.4.-.;.;.",
"i N +.o.J._.}.b.A s 5   4 $.i.] Q ~ _ 6.9X,Xr.a a oXoX$XoXtX$X# X : 3 $ a G G A G y.+Xy.9.U %XPXBX1X7XjXSX=X$XtXAX|.H.1.=.n.:.;.",
"i n #. .z. XZ.S s V i   5 & S 6.| ] E i.9XD.L = D y.0.y.tXCX$X2 : 3 3 = 1 A I G D 0.oXoXy.r.+XtX,X5X8XrXBX*Xy.0.@XuXh.5.4.7.:.=.",
"c / ]  .P._.N j s G a X C = = C q.:.+.E.>X$.8 = U 0.T hXKXJXCXZ 1 1 5 1 # V Y Y G L r.0.0.XXq.A.i.5.E.+X#X#Xe.e.w._.T.j.3.3.1.=.",
"M | ] s._.,.m A C L a   a = % a b ;.$.+.;.i # V G t.BXPXPXKXJXZ = 3 5 5 X = I 0.U U 0.G 0.e.j u.6.h +.W.(.W.Q.Q.=.M.[.z.j.J.d.1.",
"c ] ] H.}.' h M A Y 6 X 8 1   V C 6 C 6 3 5 a D t.NXPXPXPXPXHXT 1 1 3 a * X 6 U U U y.U r.$.S :.( +.;XeXeX8Xp.>XD.N. X].c.v.j.3.",
"c / { ).uX( ( S G r.L 2 1 1   3 L G a = 5 G Z T =XCXJXPXPXPXPXT 1 1 5 V 4 + O a C G r.Y 0.9.$.j ( 1.W./.3X6X/.E.7XQ.0XfX{.{.].l.",
"j / o. XF.N g $.9.r.r.Z 1 #   % G 0.0.L Y T 8 OXZXZXJXPXPXPXPXT - 3 8 a 3 # O X $ a 0.Y H XXt.S #.&.&.#._ 7.W.1.7X^.8XxX.X].].].",
"' ..Y.^.,.h +._ r.0.t.C 5 % #   C oXXXt.y.=X$X%XZXZXZXPXPXPXPXT 1 3 a 5 # O O .   1 a A G r.r.q.&.7.(./.i.7.6XE.;X>X5X4X).pXxX].",
"/ H.uXC.;.#.=.` S 0.r.a = # = % 5 y.OXoX=XBXJXNXCXZXZXJXPXPXPXT : 5 5 # X # $ X X =   a a Y q.#.&.i.eXvXzX/.E.4X,X1X>X7.5XzXvX X",
"' K.uXuXe.1.] ` g H r.a # * 1 = : oXhXVXCXCXZXBXBXZXZXZXKXPXPXT % $ X   X * O   #   # 5 = Z 9.#.&.5.wXeXzXlX3X^.7X5XK.7.aXsXzX X",
"E 5.).P.F.#.#._ ( j H C @ : + $ = G JXPXZXZXCXNX$XBXZXZXCXNX$Xa     X # * % X   X % 1 % 4 C $.#.#.5.6XlXaXsXzX9X3X3X5.p.lXzXvX|.",
"h ^ { o.!.Z.4.#.:.;.F G , : = 1 2 7 $XPXJXZXZXCXK t.*X$Xt.U T 6 # % * * #     . % 1 O = 8 a $.#.&.&.4XeXaXaXaXlXeX/.<./.eXzXnX.X",
"f ^ ! o.P.Z.y.6.S.q.A P i : i 2 1 1 Z CXIXCXZXZXOXt.Y K H t.oX8 # $ # X X X X - 1 X : V 4 - H ` &.&./.eXaXaXaXaXeXp.5.6X9XkXvXdX",
"f ] {  .`.Z.e.>X(.u.N J b : a 5 1 2 7 T HXJXZXZX$Xr.t.t.XXt.G - X X O O X X O * X # V 8 O * F ) N &.p.eXeXeXaXaX>X4.p.eX0X^.kXgX",
"g ^ d.o.}.V.-X8XlXA.( F F , 8 a 1 1 2 6 $XKXZX=XT G U Y G G C # O O * * X O O X $ 1 1 # O ; F | h h 1.5X8X/.eX6X5.5.W.3XQ.' <XbX",
"d ^ j.o.}.F.(.^.lX;X+.q.y.y , v 6 1 2 1 8 *XZXoXT G V a D U G # @ : b * X .   i Z Y L a @ 6 F.| ` _ ) p.8X7.(.p.&.1.p./.6.m _..X",
"q R  .o._.F.=.;XaXlXi.$.+XG & 4 a 5 2 3 7 8 K XXL C A C 0.y.G & * C C 1 6 X $ oX=X%XK 1 % i uXG.] ] <.&./.5.&.#.#.p.eX;X' @.`.T.",
"t R W P._.Z.1.3XeXvX0X:.>.+Xa * % = = = # o % 5 2 V G L H H v @ 2 6 v 0.U # Z ZXZXVXG i , < Y..XX.] <.| &.] ` ( E 7.~.=.g 4.`.j.",
"o. .R o.Y.S.6.3XeXzXGX1X:.9.P i $ # + $ $ $ % X = : - 1 6 i : $ @ & d F C 1 OXa.;.$XXX0.v w } k.I.X...&.` h E ` +.5.E.#.) A. Xj.",
"J.j.! o.'.A.5.3XeXeXAXzX4.S A G a * + .     # i L C C 5 = + * 0 p f @.( j 6 F r q.BXtXt.x < z n X.I.n.| ' f _ &.5.3XE.1.&./.iXT.",
" . .E z.[.e.7.(.eXeXkXyX#.N f S P M + . . . X $ - 3 - , 0 u N d g N S +.$.;.#.g a.tX$Xw.P l } n m ^ 3.| ' g ` &.p.4X3X3XQ.(.fX|.",
"r t E z. XS.A.6.eXeXlX,X+.h g S b.B.< & * 6 i b S u d @.6.1.) d f F u.^.,X6X4X1.u.rX$XtXV.b.k.m c ' X...m d ` &.~.6XeX7X(.(.AXgX",
"q r ! c.{.F.F.' 4XeXeXD._ N d M f.c.z < n } D Z 4 y :.~.~.A.^.+.S ~.,X7XqXeX6Xi.jXJXBXNX%Xg.k./ p n X.| d e ( &.W.aX3X>X4X-XLXgX",
"u z ! c.{.G.D._ /.eXwX#.` N M D M.o.z z } k.l > + C e.a.1X1X-Xu.N ~.6X9XqXlX1X-XrXjXBXrX2XY.h.( x ' X./ d q m #.3X(.W.5X2X_.gX X",
"u ~ o.k.{.G.D.1.^.zX;X) _ @.F J I.o.} z Q ^ z < : 9.9.S.<XrX1X^.g +.~.<X<XrXBXrX2X1X@X6.G.[.h.n x } K.| h r d #.>XE.8XpXpX5X Xz.",
"j ~ o.o.].I.Z.4.~.vX>X1.` @.P b.c.H.M.B } } [ f.p H e.D.i.~.p.+.f d N :.S.-X~.i.;X;X&.W.K.[.f.B P b.L.] ) h ~ 1.7.7.5X5XpXxXR.j.",
"d ( [ { T.'.=.] 7.eX4X4.:.;.q.I.o.K.2.F B m [ k.} D #X-XE.1.+.:.u.M :.^.;X3X6Xp.~.7.<.7.2.Y.} c _._.2.' g f g ) ` #.p.8XaXvX XP.",
"m m ) ] l.'.F _ i.1X-XXXy.y.B.c. .| ' } B ' g.k.l F #X7X0X-Xi.;X;X=.A.5XwXeXlXQ.5.p.] 3.2.].x.R X.M./ m e q d ( h h (.aXaXnX XT.",
"d M N ..o.h.F A 9.S.e.q.;.V.U.v.[ ~ N B D } n 0 X H -X1X-X3X9XeXqXu.i.,XwXlXyX5.7.4.6./.N.].z.Q X.' m m e q f f f +.3XaXlXnX X].",
"p d ~  .].b.C b G $.#.:.;.J ].c.[ B b c Z b < & i *.u.(.W.8XeXyX;X#.g 4.p.E.1.#.p.E.5X9X>X|.c.! ^ z m g q q g h h &.4XaXlXnXfX.X",
"q z Q o.v.B.A b u @.r.$.F >.v.c...m s v v v c z x.}.' 6.p.5.7.1._ E j _ ` &.&.5.(.8X6X3X5X}.R.!  .r r q q q N ) ( <./.aXzXGXbXnX",
"e d ^ z.v.B.G M A A A j H B U.x.{ j p b v k b } l.|.7.7./.&.1.&.1.4.D.Q.p.p.~.3XeX5X5.W.^.5XR.o.M.z e q q g ( E h 7.wXaXvXDXbXDX",
"d [ o.].I.J P M j D D M M m g.l.` d c n 6 7 < m k.T.7.!.W.p.4X6X3X,X(.8XeXeXaXaXeXA.&.5.<.d._.J.=.m d d d _ #.( #.4XlXzXxX XY.2X",
"~ k.o.{.G.K P A M $.$.( ~ ' x.j.~ c i n x < i Q k.R.<.7.i.;XzXlX8X4XE.8XeXaXaXlX9X7.(.~.] &.| ( ) m g N ] 4.4.&.E.eXeXvXfXU.K.M.",
"q ^ o. XS.9.U U j +.#.` #.7.K.o.R w w c w y c X.J.Y.( 7.W./.vXlXeX5Xp.6XlXeXzXzX7X/.~.W.p.#.( _ ] ) g g 1.4XW.5.3XlXlXxX X .' M ",
"0 r  .iXF.9.9.F f +.7.&.^.(.!. .R w 0 c p r ^ I.Z.,.( i./.^.zXzXeXeXwXeXlXvXAXeX4XQ.W.wXwX4X4.( #.#.#.=.7.8Xp.A.kXeXsXfX|.^ z i ",
"0 w [ uXC.U A d f 1.>X7.0XqX5Xl.Q e 9 0 0 R  .v.M.$.+.u.#X#X4XlXlXeXeXeXvXAX6X4X~.-X,XsXeXlXW.&.&.5./.7X3X7Xd.;XzXyXnXfXJ.' M v ",
"9 q ^ <XC.G.| N ( E.9Xp.0XaX8X].! e 9 w < m [ '.M.F 0.*XrX-X-X-X2X0XeXzXvX^.p.^.e.-X-XrX6X,X5.5.p.6XpXaXlXpX!.!.qXkXbXY.X.*.D C ",
", r | V.#XbX2.] ` /.eX/.qXaX3X].o.e 9 r n c x n x 7 Z oXBXtXjX+X$.#.6.6.1.#.~.4.d u.^.S.S.:.1.A.yXaXlXxXdX{.[.K.5XfX Xh.) D Z D ",
"9 Q G.<XP.iX6.] &.(.aX,XqXlX_.].! e 9 e n < 2 % > > % v OX=XVXjX=.+.:.@X#XD.6.:.' B :.w.Y b ' (.eXkXiX Xc.z.].J.U.].c.^ b a a v ",
"0 n G.X.{ ).<.#.5.;XlX,X9XlX`. X[ e , q Q l %     o o ; > k T OX;.' | u.%XC.;.r.T D b 6 - , B (.xX.XT.k. . .c.c.j.l.h.m b b p q ",
"0 r ^ ~ Q K.,.#.E.A.zX^.4XzXiX|.R q 9 w ^ I.<       o @ ; @ < < i } m.n v 4 4 - < < < > & , 0 V.dXz.{ [ Q ^  . . .[ | m p p 0 i "
};
