/* XPM */
static char *result[] = {
/* columns rows colors chars-per-pixel */
"64 64 256 2 ",
"   c #040206",
".  c #06040B",
"X  c #09060C",
"o  c #0B090E",
"O  c #17080D",
"+  c #0A0514",
"@  c #0D0C12",
"#  c #120E14",
"$  c #180C15",
"%  c #131115",
"&  c #15131A",
"*  c #1A151B",
"=  c #1B191E",
"-  c #2E030D",
";  c #3A0712",
":  c #28181A",
">  c #37181B",
",  c #34221E",
"<  c #1D1623",
"1  c #1D1B23",
"2  c #1D1629",
"3  c #1E192A",
"4  c #1E1A31",
"5  c #221C25",
"6  c #291A24",
"7  c #221C2A",
"8  c #371C24",
"9  c #211E34",
"0  c #211F39",
"q  c #262227",
"w  c #25232B",
"e  c #2A242C",
"r  c #362628",
"t  c #3F3020",
"y  c #282437",
"u  c #2C2B32",
"i  c #23213B",
"p  c #362B37",
"a  c #322D34",
"s  c #3B3437",
"d  c #35333B",
"f  c #3A343C",
"g  c #471519",
"h  c #47231C",
"j  c #58261B",
"k  c #68281C",
"l  c #782B1D",
"z  c #6A321E",
"x  c #4D1323",
"c  c #581626",
"v  c #6D1B32",
"b  c #452A28",
"n  c #562926",
"m  c #46302E",
"M  c #58332D",
"N  c #4C3434",
"B  c #46353A",
"V  c #573936",
"C  c #553C3B",
"Z  c #6A2B25",
"A  c #732B28",
"S  c #68352B",
"D  c #783527",
"F  c #79233A",
"G  c #673A35",
"H  c #763C35",
"J  c #49403F",
"K  c #58413B",
"L  c #67463B",
"P  c #784539",
"I  c #73543A",
"U  c #242443",
"Y  c #2B2944",
"T  c #25264B",
"R  c #26284D",
"E  c #2A2A4C",
"W  c #332E44",
"Q  c #3A3642",
"!  c #3D3B44",
"~  c #383548",
"^  c #272A52",
"/  c #292C53",
"(  c #2C2E51",
")  c #2A2E58",
"_  c #313052",
"`  c #383756",
"'  c #4E3145",
"]  c #423D45",
"[  c #493945",
"{  c #413E48",
"}  c #463B55",
"|  c #7E2945",
" . c #3E4162",
".. c #44424B",
"X. c #4A4448",
"o. c #564748",
"O. c #4A4652",
"+. c #4C4B54",
"@. c #494658",
"#. c #544D56",
"$. c #53515B",
"%. c #5A5359",
"&. c #654A49",
"*. c #754A4A",
"=. c #69554A",
"-. c #795747",
";. c #675958",
":. c #795A57",
">. c #78664A",
",. c #786657",
"<. c #4F4B66",
"1. c #595667",
"2. c #645C66",
"3. c #695D70",
"4. c #5D7561",
"5. c #68646A",
"6. c #776869",
"7. c #7B7462",
"8. c #6C6776",
"9. c #766B75",
"0. c #797478",
"q. c #852E1F",
"w. c #873725",
"e. c #88362B",
"r. c #953826",
"t. c #A73A26",
"y. c #B53B26",
"u. c #CF3E27",
"i. c #99462A",
"p. c #87473A",
"a. c #984A38",
"s. c #8F5231",
"d. c #A84428",
"f. c #B5492A",
"g. c #AF5333",
"h. c #99653B",
"j. c #B16C3B",
"k. c #CD4C2F",
"l. c #C7592D",
"z. c #D36F35",
"x. c #E27937",
"c. c #892746",
"v. c #8A364D",
"b. c #8B554D",
"n. c #985847",
"m. c #A95A45",
"M. c #B55D48",
"N. c #B55850",
"B. c #8A6747",
"V. c #95704D",
"C. c #84665B",
"Z. c #996656",
"A. c #B9664A",
"S. c #AD6F51",
"D. c #876B68",
"F. c #966B67",
"G. c #88756A",
"H. c #98756A",
"J. c #866E72",
"K. c #887878",
"L. c #957A78",
"P. c #A87667",
"I. c #B17469",
"U. c #A87B74",
"Y. c #C9724F",
"T. c #CC796B",
"R. c #7E8B72",
"E. c #BC883B",
"W. c #DF8637",
"Q. c #E48635",
"!. c #E19138",
"~. c #B88647",
"^. c #B18854",
"/. c #94896A",
"(. c #979060",
"). c #95827A",
"_. c #B28F6E",
"`. c #A88378",
"'. c #BBA577",
"]. c #D98A48",
"[. c #CC924F",
"{. c #C88758",
"}. c #EB9943",
"|. c #DBAA56",
" X c #EAB151",
".X c #CA8F70",
"XX c #C88876",
"oX c #D7967B",
"OX c #CDAF74",
"+X c #E6B66E",
"@X c #DEC57D",
"#X c #F3C96D",
"$X c #EAC778",
"%X c #F3CC78",
"&X c #716E83",
"*X c #7A7685",
"=X c #887C87",
"-X c #907E94",
";X c #7B9480",
":X c #888388",
">X c #958889",
",X c #8D8B90",
"<X c #948995",
"1X c #9A9498",
"2X c #9B9D9E",
"3X c #B08E88",
"4X c #AB9588",
"5X c #A69697",
"6X c #B79A98",
"7X c #B0A592",
"8X c #BAA698",
"9X c #A79BA5",
"0X c #B09EA8",
"qX c #A9A4A9",
"wX c #B8AAAA",
"eX c #B7ABB1",
"rX c #B9B3B8",
"tX c #C9988F",
"yX c #D59A84",
"uX c #D9A688",
"iX c #C9A796",
"pX c #CCAE90",
"aX c #D8B499",
"sX c #E2A98F",
"dX c #E5B499",
"fX c #CBAEAA",
"gX c #C8B9A7",
"hX c #D5B8A6",
"jX c #C7B8B9",
"kX c #E6BAA3",
"lX c #D7C794",
"zX c #EED08A",
"xX c #FBE697",
"cX c #DAC5A9",
"vX c #D5CBBB",
"bX c #D8C9B9",
"nX c #E8C5AA",
"mX c #E7CCB6",
"MX c #EAD4BB",
"NX c #F4D2B8",
"BX c #F8E8AC",
"VX c #C7BBC3",
"CX c #CBC5C8",
"ZX c #D7CCCD",
"AX c #D9D5D7",
"SX c #E7D4C5",
"DX c #F6DCC5",
"FX c #E5DAD9",
"GX c #F8E4C8",
"HX c #FCE4CC",
"JX c #F4EDD3",
"KX c #FCE9D3",
"LX c #E4DEE2",
"PX c #EBE7E7",
"IX c #F3EDEA",
"UX c #FAF7E8",
/* pixels */
"L k C.3.> h M K.CXIXPXVX5X#.[ 5X).J 5.:X6.;.p : s B p p r p 5 5 u 7 6 c v v p 7 y 9 y y e u 9 6 7 2 7 2 7 u 9 7 5 3 1 < < < = * ",
"*.b 6.N h j ,.5XPXIXjX=X%.' %.9.K.2.o.f u a p p B p q 6 5 7 3 7 6 x c c b Q W @.2.9.9.5.;.#.%.[ ~ W y 9 7 2 2 2 2 3 1 1 < 5 = = ",
"b.b &.Z k n =XVXFXjX9.;.f %.0.0.f e r [ J B e 6 < 2 5 7 q #.:.N n c 8 7 a f #.0.1X9X9X<X9.3.9.9.2.9.:X>X:X=X0.1.] r q 3 < < 6 e ",
"Z.D &.j k ' 9XZXVXJ.D.M &.D.=.6 7 e B p e 5 5 5 5 7 e d K.gX4XZ.F.&.Q ' *.`.gXfX5XwXfX5X%.0 9 y 0 0 } #.#.3.>X1XqX5XK.6.#.B u 5 ",
"Z.D S z j ).ZXVXK.H.P H -.G j r C [ u = < < * = 7 w =.I (._.dX`.L B.8 *..XkXnXkXuXdXGXJXSX>Xo.U i 0 0 0 9 7 7 ' $.1.3.0.6.5.;.o.",
"F.D Z w.M CXVX5XG.b.w.H D n b C p q 2 < < < f /.,.m K D p.-.S.P b n O n.oXDXHXHXNXuXMXKXKXDXtX' i i 0 0 0 0 7 Q } $.O.p W ..1.+.",
"H.w.p.w.C.FXeXL.Z.l w.z Z V B a 5 3 3 1 r ,._.,.V b e r I X.X.9.[ 5 # 8 H.NXHXDXDXmXdXmXGXHXhXQ U y 0 0 0 9 9 9 9 y Q ~ ! W y y ",
"L.r.i.D 5XZXF.N.D k > 6 8 o.6 2 3 3 3 u o.=.K b r = 5 y u d ..W w i 9 4 B U.dXcXbXbXnXmXKXHXhXW U 0 0 i 0 9 9 y 9 9 9 0 y @.! y ",
":Xr.d.w.wX6XP D j j g b [ N 5 2 5 7 5 7 r N r = 1 3 3 4 y y i 0 0 i i i i f iXGXHXHXKXGXmXDXkX' U i i i 0 4 0 0 9 9 9 i i y ~ ~ ",
"5Xi.g.D 5XL.D z k k j V V h : r ;.a a m m r ..1.+.*X,X*X1.W i 0 9 0 i 9 w C.nXcXcXaXsXuXNXDXdX&.W p ! ..@.@.u 4 9 i 9 9 i i y W ",
"5Xb.k.f.L.*.l l z j j V M j B._.C.C N , Q =XqXqXCXLXPXVXZXqX} 0 9 i 0 Q G.^.OXpX@XOX.XpXDXDXoX' U y i W O.0.,X6.u i i i i Y Y i ",
"S.U.g.f.F.H w.q.l h M N M _.'.-.N r 5 X.2XVXVXAXAXLXLXCXCXPXrX~ i i O.4XpXOXuXpX_.[.+XOXmXnXS.d E T T U i i W 2.9.f w U i U U i ",
"f.P.S.A.C.G w.q.k j n ,.'./.L m : 3 ..-XrXrXAXIXAXIXAXAXZXZXVX=Xy 0.nXMXGXKXKXKXJX7XS.[.'.oX*.E E T E E U i i 9 ~ 1.f 9 U Y T i ",
"l.d.m.T.p.S r.q.z D `.'.,.C b , : m 9.qXrXCXIXAXAXLXAXLXSXVXqX9X0.iXtXbXGXHXGXKXGXMXpXj.h.h.B E E U E 1.U i U U i W 0.%.i U E i ",
"l.g.Y.I.D D d.r.a.OX^.o.N n k k j &.0.VX2XCXPXCXrX0XjXCXVXVX0X-X4X).4X5X7XvXGXKXNXNXBXS.i.S E ( R R @.*X_ i i U U U ` rX1.i E U ",
"l.l.Y.Y.w.i.r.S..XB.V t h H n Z H J.VX&X&XAXCXeXD.3XZXCX0XsXT.XXhX8X=.5.9.,XSXKXaXnXHXI.D s ( ( ( )  .9X_ U U U U U U :XCX@.T i ",
"g.z.Y.g.w.f.S./.*.N r h j :.[ ;.L.,X%.8 &.eXjXCX0XD.L.-XT.N.I.T.nX8X] d ..R.>XMXiXkXmXm.Z E ) ^ ^ / <.qX^ R R T U U U @.rX:X( y ",
"l.l.z.h.w.{._.=.V V n l l p.Z.*.#.8 > j S 4XwXjXfXD.*.T.N.b.-XT.XX8X;.d $.:X..K.kXsXyXZ r ^ ^ ^ R _ 1.VX&X,XqXqX<.U T U qX:X@.{ ",
"z.l.f.m.^.'.&.M k M &.A q.l j > p 6 g h c C.L.L.3X>XhXdXN.-XsXkXDXaX>Xf { 1...d `.T.m.b ^ / ) <.1.1.&XrX .`  .2XCX( U 0 1X*X1.i ",
"k.d.d.{.'.&.n k l n M k l h : : > n h j l H :.b.L.P.3XbXmXsXT.kXGXdX6XQ d ! ..! [ m.' _ <.8.*X<. .) ^ ,X) T T &XCX .U 0 ,X8.@.Y ",
"d.f.S._.L Z q.w.r.A V k b.Z M G =.6.6.F.F.F.b.c >.iXSXaXMXGXMXvXSXoX>XQ u ! { +.#.V 3.K.-X8. .^ ) ) &X&XT T ) <X3./ R i ,X<.} Y ",
"z.Y.'.P r.r.q.t.r.D &.Z b.F.D.:.H Z q.r.r.y.t.j q =.iXMXvXvXAXSXgX`.,Xe w d { :X>X] } } _ ) ) ^ )  .*X) T T  .*X` T ^ _ 5X~ W i ",
"z.OXh.t.f.t.q.t.r.e.' F l l k k l l q.m.I.XXN.N % o u 7.>XgXcXwX>X9X=Xe w d 2.CX8...p T ^ ) ) ^ ) &X&X^ ^ ^ )  .^ ^ T 1.<XU i i ",
"s.m.f.f.f.y.t.Z.3XU.G G q.q.l Z l r.I.kXcXgXMXMX8XJ o = w = u q = o.I b u ..qX1X#.@.[ T ^ ) ^ ^ &X&X^ ^ ^ ^ ) ^ ^ T E 5X9.T Y i ",
"D d.d.f.d.t.a.I.N.f.r.&.A l l l q.S.kXDXmXmXmXcXgX7X=.=.;.] w q 5 = q a J +.0.$.+.$.Q T / / R &X<X) ^ R ^ ^ ) ^ T U 3.jX` R E U ",
"d.g.l.f.t.N.iXM.f.y.t.G V e.y.k.t.N.sXdXuXuXpXcXcXlXlXcXmXgX).+.d u 1 u ....+.+.$.+.e U T T &X-X) T T T T ^ ^ R U <.VX*XU U U U ",
"].Q.z.t.r.tXsXy.y.f.e.v m G Z A D M.Y.T.aXcXOXlXOXcXGXGXNXNXNXgX%.! ~ d ..O...+.$.! $ U / 8.*X` R R T T R ^ ^ T 1.VX=XT U U W d ",
"U._.{.g.y.I.fXt.r.3XfX3XF.o.f Y b m.Y.oXmXV.E.[..XOXsXsXoXuXsXdX_.6.>X4X8X8X4X7.! < $ <.0.8.) / T R ^ T R ^ } -XVX9.U T U 9 y y ",
"s.B.G.6X_.Z.6XZ.A Z.F.A e.D.} ;.2.b.M.oXT.i.s.S.yXoX.XaXNXGXDXbXmXDXHXHXGXHXHXNX3X5 s J.1._ ) ) / T T ` 1.-XVX9X@.U E Y 2 e 8.1X",
"Q.z.i.G D.>XwX0X<X3X3X6XjXVX0X9.3.b.a.M.h.D i._.DXmXMXGXKXHXGXGXHXHXHXHXmXdXdXnXDXtX%.` ) / / ^ } 1.-XeXVX0X&X_ W ~ ~ W 1.qXZX9X",
"Q.x.g.r.l A :.5XeXjXSXhXtXtXXXr.A V e.n.e.k i.S.pXfXMXbXDXKXGXKXHXMXkXyX.XoXoXoXsXkXtXF.' } } ' 3.-X-X-X9.#.O.} { } 3.9XVX9X3.Q ",
"'.^.n.n.a.r.Z S J.0XVXZXjXfXfXT.N.H G S e.Z z s..XaXbXDXbXGXmXNXGXDXNXkXdXnXNXDXbX3X3.<.<.} } } ' ( ( E E ~ <.3.8.9.&X3.} i 9 9 ",
"rXwXrX4XG.L.`._.P.Z.P.wXVXVXwX5XtXpXL.X.K h z z b.Y.XXoXoXyXyX.XnXHXKXKXKXKXKXhX[ } } 0 N C.>.] o.4.@.Y W ~ ~ Y ( Y U U i e N B ",
"mXPXUXMX'.(.C.G.D.L.`.4XfXvXCXjX6X).D.J.G.#., j k D m.A.M.a.p.b.S.oXsXdXsXsXdX:.+ 2 2 N S.B.J 2.R.).;X0.;.,.f p f +.Y p B %.C : ",
"z.S.mXIXUXxX%X|.~.V.-.=.=.:.;.6.0.K.K.L.K.J.o.r , h j n n g > : b a.m.N.M.N.A.M # < $ s.h.s 4.(.V.[.V.7.2X7X;.G H p.I m m r b , ",
"g.i.l.Y.kXJXUXBXxX#X X}.[.B.P V C N V o.;.6.G.).G.6.=.o.' C N o.V ' K G G G G V m r m L M X.K I s.S.a.j.(.;XfX`.F v S h h M =.6.",
"g.f.f.d.f.n.3XjXUXUXBXBXzX X X[.V.s.L K C K o.&.;.5.J.).>X>XD.=.&.K K K [ V N C N m m m N V K ' K L B.h.j.R._.Z.c > r N ;.K.fXwX",
"x.z.z.d.r.t.y.r.M.yXmXIXIXIXKXBXzX+X|.[.~.~.S.V.s.I V C K K &.=.=.o.C B N N K J s y < # 7 p N C B.^.V.B.~.(.G.-.=.:.K.5XfXaXOX).",
".X{.z.i.y.y.y.q.q.r.u.Y.oXkXFXIXUXUXUXBXBXxX%X#X X X].~.S.B.I >.V.V.G.>.L K K &.I L B d _ ` W B V.%XxXBXBXMX8XL.D.:.:.8XvXBX$X^.",
"PXLXZXgX6XI.N.e.t.t.u.u.u.u.k.Y.tXbXSXLXIXUXUXUXBXxXxXzX#X#X#X@XOX'.OX#X|._.[.|.#X#X@XpX1X0.%.&.o.).wX4X3XP._.I S S P B.'.%X$XH.",
"PXPXIXIXPXLXSXvXfXyXT.T.T.Y.M.A.H.F.A.m.o.;.5.>XCXZXjXZXJXvXcXgXvXZXSXSXMXGXvXlX7X7X4X>X).C.L K -.Z.s.`.SXDXzXV.H P H b.OXlX8X/.",
"CXK.C.Z.b.b.N._.AXtX_.`.U.>X=X0.6.;.C.C.;.;.%.=.).5X,XR.#.a s J B p s 2.5X2XJ % % % % @ : h V G n.hXSXvXgX8XlXS.p.H A *.3XtX3X,.",
".X4XZ.a.r.t.I.SXoXz.!.!.z.D m m B B ] X.o.#.X.+.a s 1XrX).8.$.X.+.5.:XwXwXu       o & o 5 a a u o.5.8.5.;.=.>.-.H H *.b.n.H Z Z ",
"|.T.Z.m.m.a.U.6XS.~.~.~.S.V.*.%.} p : & @ % a ! d % = 4.2XCXCXqX1X:X0.X.q % @ % . @ u ! ..d 5 X w Q ~ ! ! { ! s S H Z A v F e.G ",
"].z.Y.M.A.iXtXg.j.E.W.j.s.I q & o   . . @ d ....! ! =   o = d = o   & % & & @ o s +...f 1 @ % q d d e w u d ! ! s N N P *.-.&.N ",
"!.Q.x.z.z.+Xx.r.I  X XE.K : X   @ 1 d = @ f ..{ ....! 1   % o     o = o = @ % u { 7.qX0.%.%.%.#...X.X.Q s s o.2.9.9.2.o.m m m r ",
"Q.x.x.x.x.!.}.h.N V.[.^.b O   1 d { ..d @ d ..! ..! ! w % = & % & & = o w u u q 1 = 0.rXqX0.5.5.#.o.#.#.%.%.#.X.] r d X.$.#.o.;.",
"Q.z.l.z.}.}.}. XE.>.=.;.= o w ! ! ! ..! % d { { ! ! q w ! ! ! ..d & @ u +.+.d = 1 ! ..+.5.#.f Q f ! ! ! ! ! ! ....O.{ Q ..$.%.[ ",
"z.j.z.W.].[.[. X[.^.7...o q ! ! ! { ....w u ....d w ! ......d 1 o & w ..w % % w X.$.$.$.$.+...! f ! ! ! { ! ! ....O.@.$.....8.2.",
"j.z.Y.z.oXiXI.[._.G.K o = ! ! Q ! ! ! ..u w ..d u ......! w @ o w d u & o = u ! O.....+.$.$.$.O.+.+.+.5.9.4.9.0.0.*X;X1X1X1X,X9.",
"yXj.j.S.4XqX`.A.P O   % d ! ! ! ! ! ! ! ! 1 u d +.+.! w w = @ d ! = o = d ..{ ..O.+.! u ! ! ! ! ! { ....+.$.$.1.5.5.8.0.0.8.5...",
"S.S.V.h.^.gXP.k   o & q ....! ! ! ! ! ! d @ d +.! u w ! u % u w & 1 d ........+.+.+.+...e u ! ..{ { ....! ! ! ! ..+.+.$.$.$.1...",
"P._.{.Y.z.Z.P O 1 ! w ! O...{ ! ! ..! ! = w d u u ! ..w @ 1 1 = w ! ....+.O.+.+.$.$.+...d * & u u w w w 1 1 1 w { +.$.$.$.1.$.! ",
"Y.[.].].].{.h & ..! = ..O...! ! ..! ! 1 & w w ! ....w o % w w w ! ! ! ..O.$.+...d u = @ . . .   . 1 d ....+.....+.$.+.$.$.d 1 @ ",
"^.{.{.[..XZ.: ! +.w = ..+...! { ..! w o q d ! ! d & @ w ! d = d ! ! ! ! f a 5 & o o @ @ % * = = & & w ......+.+.+.+.+.d = @ o o ",
"[.[.{.{.{.b.! +.+.w w { ......{ ..J u s ..d q % o = { ..u @ w d ! d q q r r K K > : w d Q ! ! Q { ! u w ! ..{ ! d u & o o @ @ @ ",
"Y.[.{..X_.X.+.O...u d ..! ..X.%.+.d ..d w %   % u ..! w X 1 a s m K L.4X_.b.v.c.c.c c g ; : 5 q = & % . % = * % @ @ & w ~ ! u 1 ",
"^.uXaX_.C X.1.$.1.4.%.$...X...f = w = o     & ! ..u & : N ,.V.P.pXS.MXkXP.c.c.c.c.v c x ; ; - X X X & & X   o & & & w u u w o o ",
"iX6X/.C.9.>X:X0.8.5.$...! d q @ % o       % u e q J B.pXpXlXpXI._.b.F.b.c.c.c.F c x g g g ; - X   X o = q 1 % @ o o . . . . . @ ",
"wX5X:X9.X.#.$.$.$.O.d q % o   . . .       % % m _.OX.XaXoXoX_.F e.c.c.c.c.c.c.F v v c c g ; ; O X X . @ * q u { d w @ . + X O r ",
"q @ 1 $.w u +.! w % . . . .   . o % & . O > p.A.Y.Y.M.Y.{.Y.e.v c.c.c.F c.F F v v c c g ; ; - - O O   . 1 1 @ & 3 @ O b M S M P ",
"o % = +.$.w @ o . . .     . @ 1 u Q a M s.a.A.m.A.M.n.A.I.Z.C.v c.c.v v x x c c B.V.Z.B.I L M h ; - O O o & @ . . * s.~.{.S.S.j.",
"& % + ! 1.+.& . . . . o & u d ! f >..X+X+X+X+X+X+X@XzXzXzXzXlX'.L.b.v.| c x x > 0.pXzXzXzXzXzXOX'.^.^.^.s.m t : : j.|. X X X XE.",
"& & . q 2.1.! o o 1 u d { d & % V.zXzX$X$X$X$X%X$X%X%X%X%X%X%X$XzXuXL.*.x c *.#.9.9.OXzX%XzXzX%X%X$X#X+X+X|.|.{.~.].].].].].!.j."
};
