/* XPM */
static char *result[] = {
/* columns rows colors chars-per-pixel */
"64 64 250 2 ",
"   c #0E1416",
".  c #141313",
"X  c #1C1513",
"o  c #1E1816",
"O  c #161918",
"+  c #211615",
"@  c #231916",
"#  c #2B1A15",
"$  c #251C19",
"%  c #2A1E1A",
"&  c #371C17",
"*  c #2D211C",
"=  c #32231D",
"-  c #3B241D",
";  c #3D291D",
":  c #342521",
">  c #3B2622",
",  c #372A26",
"<  c #3B2A24",
"1  c #382B27",
"2  c #451C17",
"3  c #561C18",
"4  c #661D19",
"5  c #42231C",
"6  c #4A261C",
"7  c #58261C",
"8  c #66291D",
"9  c #73281C",
"0  c #432B24",
"q  c #4B2C22",
"w  c #482924",
"e  c #442E29",
"r  c #572C24",
"t  c #4B3224",
"y  c #45332D",
"u  c #4B322B",
"i  c #563428",
"p  c #4B3933",
"a  c #533B33",
"s  c #5B3C34",
"d  c #672B23",
"f  c #732D24",
"g  c #7B2821",
"h  c #67362A",
"j  c #793529",
"k  c #683D32",
"l  c #7B3B32",
"z  c #58433C",
"x  c #5D443C",
"c  c #68443A",
"v  c #77473A",
"b  c #5A4B46",
"n  c #5D524E",
"m  c #654D46",
"M  c #774D43",
"N  c #69534B",
"B  c #775348",
"V  c #6A5A55",
"C  c #795B52",
"Z  c #756252",
"A  c #7A645C",
"S  c #776863",
"D  c #87241C",
"F  c #932C1E",
"G  c #8F2F27",
"H  c #883528",
"J  c #973729",
"K  c #863D31",
"L  c #A73928",
"P  c #B4342B",
"I  c #B73C29",
"U  c #AA3D31",
"Y  c #C63629",
"T  c #8F4D33",
"R  c #884839",
"E  c #984637",
"W  c #9C573B",
"Q  c #AA442B",
"!  c #BA462C",
"~  c #A74837",
"^  c #B74737",
"/  c #A9543A",
"(  c #B95439",
")  c #92703D",
"_  c #BD6B38",
"`  c #C9472C",
"'  c #D04F2F",
"]  c #C74736",
"[  c #C85939",
"{  c #D75936",
"}  c #EB5338",
"|  c #CA673B",
" . c #D76C3A",
".. c #E5673A",
"X. c #F36F3C",
"o. c #875849",
"O. c #915347",
"+. c #975948",
"@. c #855E52",
"#. c #A85746",
"$. c #AC5349",
"%. c #B65842",
"&. c #986344",
"*. c #8C744F",
"=. c #896559",
"-. c #98685A",
";. c #AA6E4D",
":. c #B86A49",
">. c #A76958",
",. c #B56A55",
"<. c #B87358",
"1. c #8A6C62",
"2. c #966D62",
"3. c #8B746B",
"4. c #987469",
"5. c #917B75",
"6. c #AB7568",
"7. c #A9796A",
"8. c #B57968",
"9. c #A47D71",
"0. c #C85C46",
"q. c #DB5E47",
"w. c #F15A43",
"e. c #C76A49",
"r. c #C77849",
"t. c #D77848",
"y. c #D26A50",
"u. c #C87555",
"i. c #D37B59",
"p. c #EF7050",
"a. c #C67A64",
"s. c #D57868",
"d. c #E97A64",
"f. c #E8833F",
"g. c #B48B51",
"h. c #A69755",
"j. c #8E8679",
"k. c #8E8979",
"l. c #928370",
"z. c #B58F6B",
"x. c #A98579",
"c. c #B38374",
"v. c #B88A7A",
"b. c #B9AB6D",
"n. c #CE8C48",
"m. c #C68655",
"M. c #D88657",
"N. c #C69758",
"B. c #D8955E",
"V. c #E88647",
"C. c #EC9052",
"Z. c #FA965A",
"A. c #CBAB55",
"S. c #F9AC5B",
"D. c #C78265",
"F. c #D98568",
"G. c #C78C7A",
"H. c #D09370",
"J. c #D99479",
"K. c #ED8F69",
"L. c #F99867",
"P. c #E49679",
"I. c #DAA768",
"U. c #D0AA76",
"Y. c #D9B678",
"T. c #E4AB6A",
"R. c #FCA568",
"E. c #FCA676",
"W. c #EBB071",
"Q. c #E6B978",
"!. c #FABA76",
"~. c #EFCD77",
"^. c #F8C77A",
"/. c #E3D279",
"(. c #938C84",
"). c #B58E82",
"_. c #AF968D",
"`. c #B8978A",
"'. c #B3A792",
"]. c #BAA498",
"[. c #B8AD9B",
"{. c #B5AAA3",
"}. c #C69787",
"|. c #D79A89",
" X c #C89E91",
".X c #E69B84",
"XX c #E39E93",
"oX c #D1AD8C",
"OX c #C8A697",
"+X c #D5A998",
"@X c #E6A88C",
"#X c #F6B68B",
"$X c #E5AB95",
"%X c #EAB39A",
"&X c #C9ACA3",
"*X c #D3ACA2",
"=X c #C4B5A6",
"-X c #D6B5A9",
";X c #C6BBB5",
":X c #D9BDB3",
">X c #E8B8A4",
",X c #F0B8AA",
"<X c #CEC499",
"1X c #EFCC8E",
"2X c #FDC585",
"3X c #FAD686",
"4X c #F8E38B",
"5X c #FAE895",
"6X c #FDF698",
"7X c #CAC4BB",
"8X c #D8C3BA",
"9X c #D9D3B4",
"0X c #F3C6AB",
"qX c #EED3AD",
"wX c #E6C8B9",
"eX c #F5CDB4",
"rX c #F6D6BC",
"tX c #FBEAA9",
"yX c #FAECB7",
"uX c #C9CDCB",
"iX c #D8CCC6",
"pX c #D8D5C9",
"aX c #DAD8D4",
"sX c #E5CCC3",
"dX c #E7D4C9",
"fX c #F7DCC5",
"gX c #E9DBD6",
"hX c #E3DDDA",
"jX c #F4D9D0",
"kX c #DFE1D5",
"lX c #ECE2C7",
"zX c #FBE4CB",
"xX c #FCE5CA",
"cX c #FEF5C9",
"vX c #E6E1DD",
"bX c #E9E2D8",
"nX c #FEEDD4",
"mX c #F7E6D9",
"MX c #FEF1D5",
"NX c #FDF9DA",
"BX c #EAE5E2",
"VX c #EBE7E4",
"CX c #EDECEA",
"ZX c #F4EAE6",
"AX c #F3EDEA",
"SX c #F7F4EB",
"DX c #F4F4F3",
"FX c #FAF5F3",
"GX c #FBF9F6",
"HX c #FEFEFC",
/* pixels */
"        .           .   . : * .       + @   O O . . . O O O o O O O O O O O   O . O O     O       O     O                       ",
"@ @ o o o o o o @ @ @ $ 2 0.U & * 1 x g.m.;.+.#.R R v k q t t t t t t ; ; 1 ; = ; ; * % * % % o $ o o o o o o o o o X o . X . . ",
"X @ o @ o o + o @ @ @ # 2 D 4 > v Y.5X5X3X^.R.p.p.L..XP.;.h t r i t t ; t 0 ; * ; ; ; ; * # * * $ $ $ $ @ @ o o o o o o X X . . ",
"X X o o X X + + @ @ @ & F 4 > z.^.~.4X5X2XQ.K.L.K.E.E.E.#XN.v r t t ; 5 t t t ; 6 6 ; 6 ; ; = # $ $ $ $ @ @ @ o o o o X X . X . ",
"X X X X o o X o @ @ $ & 4 y `.3X~.~.6X4Xu.~ M.E.L.E.3X3X2X3XQ.*.7 t t i i i 8 h 9 f 7 7 7 6 5 = * % % $ $ o o $ @ X + X X . X . ",
"X X X o o o + + # @ $ * B U.W.I.U.3X4XI.^ [ M.!.2X2XcXcXtX3X3X5Xh.i 7 h j f j H L ` ' | Q f 7 ; = $ # # $ $ o $ @ # X X X X . . ",
"X X X o @ o o # @ @ & / I.u.1XY.U.Y.3Xm.| T.~.3X6X6XSXGXcX2X^.!.4Xm.F F L L ! { X.Z.2X^.S.{ T 8 ; ; # = * $ $ $ @ X X X X X X . ",
"X X X o # @ @ @ # 2 Y V.[ I.1X>.-.4X/.m.t.3X4X4X6X6XyXFXSXtX!.R.R.3XV...} } } f.Z.yXNXcXtXS.X.Q 7 ; ; # * # $ $ @ @ X X X X X . ",
"X X + + # $ $ $ # 4 ....t.t.%.Q U.1Xg.I._ 3X~.1X6X4X5X3X3X^.!.!.R.5XtXqX#X} p.X.Z.cXNXNXNXtX4XV.Q 7 ; ; * # # # # o @ X X X X . ",
"X X # # # # # # & J V...{ J ! E Y.g.W U.H g.T.T.3X3X^.!.R.^.3X5X^.^.tX!.p.X.X.X.Z.tXyXcXcXcXNX#X' 9 7 ; ; t = # # @ o o X X X . ",
"X o # # # & & & 6 f. .{ [ ' ! W B.T &.z.E / r.t.T.~.^.C.L.!.!.2X5X#XR.3Xp.w.} p.3XyXS.S.S.~.tXqXX.! F 8 ) h.; # # @ o @ X X . . ",
"X # & & 6 6 8 7 / p.' '  .` H ) &.g +.<.@X8.:.:.W :.i.V.t.^.3X1X5XtXp.3XL.p.Z.E.rX^.S.S.S.S.^.tX^.f. .n./.T 6 ; # # @ @ X X X X ",
"+ # 2 8 J ! { { V.} Y ! { L d &.R G :.m.eXeX.Xu.:.( %.( e.<.Y.Q.B.1XT.W.K.0.K.L.Z.p.q.p.p.V.S.2XyXtX3X4X/.n.T 7 ; & # + + + + X ",
"+ & 6 F m.#XqXT.f.} ` ` ` g 8 W K $.H.+XrXfXfXeX,X0X@X|.%X<.W ~.M.i.Q.T.B.K +.K.E.Z.0.Y } p.Z.!.cXSXSXNXbXyXC.Q 7 & # # # + + X ",
"# & 9 ( qX9XqXS...' P I L 7 7 l J a.rXfXrXF.,.y.F.%X@Xy.,XeX,.B.T.I.^.Q.B.h r o.F.P.y.%.Y w.L.E.yXSXDXDXDXCX9XI.W 9 3 3 3 3 & + ",
"# 2 F ' oXoXB.V...` J F G 7 d d J %XfXxX|.#.}.,XrXzXfX@XP.xXrXF.u.r.T.3XU.o.x.c -.J.P.i.d.w.Z.L.W.3XyXDXDXCXCXlX/.N.( P D D D 3 ",
"# 6 D Y {  .f.f.' Y g f 9 6 H G ~ wXxXxX0XrXMXnXzXnXnXMXzXnXnXxX0X|.e.I.Y.wXzX].s G.$X.XXXs.Y w.V.L.!.qXAXCXCXkX/.pXuX[.%.L P D ",
"# 2 4 D Y ' n.X.' L D 8 7 6 H L 0.0X,XfXfXnXnXnXnXfX%X>XfXnXnXnXMXMX@Xr.Y.6.7.rXC =.sX>X%X>X$.U ] p.L.#XjXAXCXvX9XpXaXuX=Xz.z.*.",
"# 2 3 9 P | C...` L H f 5 6 H L ^ $X.XeX%XnXnXrX|.#.I q.K.eXnXnXnXMXeXH.U.R J -X_.x :XjX>X>Xv.h G ^ s.wXdXwXlXbXlXkXuX<Xb.A.h.*.",
"# & 3 F Y n.f...` J H j 5 7 H U I 0.%X$XJ.0X1Xm.J J ~ $.#.0.@XnXnXMX,XP.wX<.J  X Xe }.SXdX*X>XC r g $.XX$XW.1XwXlX9X<XA.A.A.h.Z ",
"& 2 F Y ' n.f.{ ` F 9 j r 7 G Q ] ] s.%X0.e./ j K O.>._.{.$.|.MXMXMXeX.XzX+X( G.-.0 4.mXAX>X-X`.p r l $.w.d.K.P.T.B.n.n.A.h.b.S ",
"& 4 F Y U. .f.{ ! L 8 6 7 w d H ~ ^ ^ J.q.E f r (.&X+X>X+XG.zXMXMXMXzXeXMX-X/ a.R y B sXHXsX+X:XS w d E q.q.d.d. . .n.n.h.b._.T ",
"2 4 F ] Y.|  .{ I F d T ~ H H H H E h ( q.0.~ U 9.eXeXnXfXxXMXMXMXnXMXMXzXc.8.D.R e x *XFXZX*XwX{.w 3 g P ^ ] P ! ! | n.b.[.W v ",
"3 D P Y | _  . .I H 8 v a.#.j d j l M O.#..XP.~ u.%XfXnXnXnXnXMXMXnXmXMXzXfXzXv.@.e s }.ZXHX:X:XuXa w d f f f d f J ] u.`.o.T S ",
"4 P Y Y '  .|  .' J H h ,.u./ B 6.}.`.C f $XzX|.a.%XnXMXnXMXMXnXnXMXnXnX0XrX*X7.6.< m 8.ZXHXdX-XBXV 6 6 w w w w w D ! a.2.7 M A ",
"4 %.] Y ' {  .V...( H v O.F.,.v.OXD.O.h f c.nXnXnXfXeXzXMXnXfX|.%XfXnXMX|.-.c c.9.: 1.9.dXHXhX-XZX3.> > 5 > & & - f ! +.r - N e ",
"F z.'.m.B.Y.B.B.V. .T i i ,.u.#.#.J g j U ,.rXnXMXmX>X%XzXnXnXwX$XD.fXnXwXl i v.4.: 5.}.sXHXBX:XAX(.- : > : : = - f F 8 & & e + ",
"9 / OX7X9X9X9X1XC.| T h q h >.u.e.$.~ ] ] ! }.nXMXnXeXxXnXMXMX0XT.m.wXnXlXo.v v.@.1 `.+XsXGXBXwXFX_.> : : : : = 5 d g 2 % $ # # ",
"7 F _ U.pXaXkX1XC.r.T d > & k D.i.y.q.0.] J #.xXnX$X/ #.a.@X%XQ.~.I.fXzXzX+.-.).x p &X:XdXHXgXgXHX{., * : * : = 2 r 3 & % $ # + ",
"7 / g.Y.9XaX9XT.M.| T h : % - M J.F.i.t.^ j ~ P.J.0.:.m.n.W.~.~.~.0XMX,XwX-.v.c.< V :XsXgXGXsXZXGX_.w : : : : * > 6 = % $ $ + = ",
"o.h.A.Y.lXqXA.C.M.( R h * % % 5 C @XJ.F.( ^ U J ( e.~.4XY.B.T.~.#XrXmX@XwX). X1.* 5.sXdXAXDXgXFXVXO.> : : * * : 5 5 * $ $ @ # w ",
") g.N.oXpX<XC.B.M./ R t % % = a * 1.%XF.y.[ Q Q ! | m.N./.~.I.U.qXMXnXzX:X X).p 1 `.dXdXFXgXZXGX&XJ e * * * * * & * * % $ + % e ",
") h.oXoX-XU.M.i.D.;.R t * @ a -.= * l.@Xt.( ! ! Q j J ~ u.i.P.rXMXnXnXdX}. X1.% b -XvXBXFXgXFXAX>.$.u * * $ * * : % % % o X > z ",
"l.[.b.N.M.i.t.H.J.>.v ; * * @.9., $ t x.#XB._ Q J J [ ,.8.@XnXnXnXnXfX}.}.8.y % 1.sXZXAXgXAXGXsX6.6.w $ $ $ $ * * % % $ o o p V ",
"k.'.N.N.r.e.<.}.}.o.= * # * *.=.* * 0 y x.@XJ.e.^ ~ l d ~ @XnXnXnXzX}.8.}.N @ y ).vXGXAXZXFXFX8X:X8.u $ $ $ * * * % $ o X $ m S ",
"k.b.g.J.:.,.>.|.}.Z t = * < o.p * @ t i t -.H.F.^ U U ^ y.rXnXnXlXv.6.G.-.: $ C *XFXHXCXFXFXFXAXaX9.a + $ $ $ $ $ o O o X - V V ",
"k.b.n.U.v.<.c.+X+X|.x z = y v.z * o < v 0 x <.D.u.~ U s.eXxXnXlX).8.c.7.e $ y `.8XAXFXFXFXFXZXsX).7.p $ $ $ $ $ $ o o X X e A V ",
"k.b.g.<.OXc.G.}. X Xx A = 1 l.1 @ * = v C < B >.>.:.U a.fXxXfXv.o.-.=.p o % 1.*X*X-X-XAXFXgXOXc.8.9.p $ % % $ $ + + o o + p 1.V ",
"h.g.:.( }.c.v.c.OX].z k.1 * z 1 o * * c >.1.1 s v -.$.~ 8.}.6.@.x s p $ : s `.*X*X9.`.:X-X}.c.c. X8Xn $ * * * * % o o o @ z 1.N ",
") g.| / >.2.c.6.OX`.p j.1 * * * * * * z M ).2.< : v m a h @.=.1 $ % $ , s 1.}. X2.o.).v.x.x.&XdXAXVXn $ $ $ $ $ % % + X % m 1.m ",
"Z _ ( J R -.x.-.OXx.1 Z 1 = * * * $ * x @.o.G.x.s : $ $ * 1 : * % * y B 2.9.x.=.c v @.9.;XgXFXFXAXhXn O $ $ $ O $ % $ O * x =.m ",
") / G J H v x.>. XN * z = * * * $ * * b  Xl.=.x.c.@.y 1 , p k k a u s N B c C 1._.;XhXDXHXFXFXjXsX;Xp $ $ $ $ $ % $ $ + * u C m ",
"T / Q Q L r o.-.'.z * = * * * = * * o z OX+X Xv.).5.4.2.=.=.@.m k m C 2._.].iXAXHXHXHXHXHXHXFXAXAXhXp $ : % : $ * $ $ o * > z b ",
"@./ >.8.7.h h &.v.t * * * = * = ; ; * ; `.*X-X-X-X).).).x.`.9.> s 9. X;XBXhXBXHXHXHXHXHXHXHXHXHXFX;X, * * * * $ $ * $ O % > > > ",
"=.,.c.[._.=.M O.>.u * * = * * : : : : : l.:X-X:X:X].`.OX].iX_.< u ).gXhXVXBXhXHXHXHXHXHXHXHXGXHXFX{.: % * * * * % % + + + : : % ",
"l.<.v.v.O.d v O.&.c * = * * * * * * * % 3.bXsXwXsX&X&XiXiXvXCX7X2.&XAXBXBXBXBXDXHXHXHXHXHXHXHXHXFX5.: * * * * $ * : $ + + : : : ",
"l.`.OX7.6.l i T W @.= * : * : * * : : : n CXHXAXDXhXaXVXaXBXCXHX8XiXZXBXBXBXvXCXHXHXHXHXHXHXHXHXAXV & * * % * % * : $ + + + : e ",
"k.[.=X>.#.R h +.+.o.= = , < < : : : : : e ;XHXHXHXCXhXCXhXvXBXHXBXgXBXBXVXBXVXBXHXHXHXHXHXHXHXHXiXp : * * * % $ : : + + + + : e ",
"k.{.=X<.L H h o.+.R ; * < u < = : * : : : 5.HXHXHXDXhXCXBXvXhXGXmXgXBXVXZXZXBXBXGXHXHXHXHXHXHXHX{.w : % $ $ : $ , , $ O + O + , ",
"k.[.[.v.L j 1.@.;.o.5 * < u , = * : : : * b aXHXHXGXaXBXBXBXaXDXjXjXVXVXVXZXBXBXCXHXHXHXHXHXHXDXS > > % : : $ : , : : O O + + : ",
"k.[.7XoX~ d 5.&X6.O.< * > u y = : : : : : , _.HXHXHXBXhXCXVXhXVXdX*XgXZXBXBXCXVXBXHXHXHXHXHXHXaXp % % : : $ : , , , $ $ + . . + ",
"k.[.7X[.,.R 1.&XOX&.< * < u u , : : : : : : n BXHXHXCXhXZXVXVXhX;Xx 5.gXVXVXCXBXBXFXHXHXHXHXHX{.: % : % $ : , , * $ O $ + + +   ",
"k.[.;X7X`.W 2.).:X).t $ = e u e : : : : , = < '.HXHXDXhXBXBXBXBX;Xa @.:XgXBXBXvXBXAXHXHXHXHXGXS % : : : : : : $ $ + + X . X . . ",
"k.[.7X7X7X:.K 4.-X-XA $ * = q u : : : < = , = n BXHXHXBXBXVXBXBXsXXXXX,XXX-X*X:X;X&X8X:X;X:X{.1 $ % % % * $ % $ + X X X X X X . ",
"k.[.{.7XiXOX>.l x.-XOXp % * : y e < > < > : 1 ; (.GXHXAXaXBXBXhX:XG.,XsXd.>.>.2.@.B o.M M o.u % $ % + + + + + + + + X X X X X . ",
"k.[.=XuXiX9Xc.-.-.x.OX-.- * % * , e < : > : : = y uXHXGXhXhXdX`.G.$.s.jX.X8.6.2.7.9.8.}.`.).< % $ % % % $ + + + + X X X X X . . ",
"l.[.=X7XiX+X#.+.-.B B -.c * * * $ * ; : : : 1 1 : V hXFXiX_.6.6.8.$.q.XX:X*X*X*X&X&X&XwXwX1.% % * % % % $ $ $ o + + + + O . . . ",
"k.[.=X7X8X2.J E j k m -.o.u * * * * $ * * * = = : * V ).6.4.}. X8.$.$.E 6.9.9.x.x.4.4.4.4.u % % % % * % $ $ $ $ $ O X X X . X . ",
"k.[.=X7X_.j ~ h f d r k o.v u * * * * * * * * * & > & x &X:Xx.2.E R K E k d k k c c v v p % > % $ % $ $ $ $ + o + X O . X . . . ",
"k.[.=X_.k J #.r l h r v -.v v s * * * = * : * ; 2 w : : y M l l E 0.$.O.w w =.=.=.o.M c * & - % % $ $ $ $ $ $ + + O X X X X . . ",
"j.[.'.c H ~ l f l 7 7 v v h h T t # % % * * * * * r w * & & > G p..X}.>.l @. X`.`.}.).p % = = % % % % $ $ $ @ + + X X X . . X X ",
"j.x.k 6 K U H j 6 r 7 t v t 6 R z * % * @ * * * * > : w m x w g g c 6.8.6.$.c.`.].OX3., & * # * % $ = > > $ @ + + X X X + > : + ",
"C l 8 7 J U j d i h i x h - 2 g 8 = # * * * * * % = > B  XXX|.6.x > 0 a =.9.C x `._.a = * * * : a 1.3.s * $ + $ + + + + + + X . ",
"@.>.H d J R l k M k i c r - 2 8 6 = = = = q - - = - 2 w l M ,.G.|.x.x * * p C c `.N % % % % y 5._.3.y % $ $ $ $ + + + + X X X . "
};
